<?xml version="1.0" standalone="yes"?>
<svg xmlns="http://www.w3.org/2000/svg" width="1418" height="517">
<path style="fill:#010101; stroke:none;" d="M0 0L0 143L1 143C10.4 121.185 25.0199 100.61 36.8503 80C41.1691 72.4762 45.5206 60.7935 54.0008 57.2284C65.2451 52.5013 83.8898 56 96 56C100.098 56 106.184 54.8912 109.621 57.6034C114.469 61.4293 117.393 69.7172 120.421 75C127.499 87.3463 134.685 99.6282 141.719 112C146.462 120.342 151.151 128.725 156.011 137C158.031 140.439 161.792 144.742 160.971 149C158.672 160.932 146.427 175.546 140.201 186C138.049 189.612 135.947 195.655 131.815 197.397C126.727 199.54 118.458 198 113 198L70 198L40 198C36.0941 198 30.6474 198.936 27.1049 196.972C23.0622 194.732 20.9096 188.844 18.7191 185C12.8043 174.619 5.09414 164.247 1 153L0 153L0 257L1 257C3.22745 244.657 13.9625 231.841 20.1505 221C22.264 217.297 24.3987 211.275 28.213 209.028C31.6287 207.016 37.1916 208 41 208L70 208L115 208C119.844 208 128.376 206.374 132.621 209.028C140.21 213.771 145.998 230.285 150.421 238C153.628 243.594 161.087 252.064 161.547 258.576C161.812 262.328 157.929 266.899 156.15 270C151.156 278.699 145.998 287.303 141 296C133.708 308.689 126.401 321.381 118.989 334C116.066 338.978 113.206 346.778 108.621 350.397C105.184 353.109 99.0984 352 95 352C83.311 352 65.8211 355.23 55 350.347C46.2582 346.403 41.7512 334.863 37.2809 327C25.7504 306.719 7.47281 284.426 1 262L0 262L0 517L506 517L506 516L493 513L496 505C506.412 510.919 516.605 510.671 520 498C516.488 499.926 513.089 502.358 509 502.797C487.568 505.098 485.382 469.855 507 469.133C511.431 468.986 515.178 471.047 519 473C521.332 469.402 525.013 470.003 529 470C529 485.093 533.843 514.864 512 516L512 517L1418 517L1418 347L1417 347C1412.46 352.724 1406.75 352 1400 352L1363 352C1356.69 352 1349.51 352.545 1347.43 344.999C1344.99 336.115 1347 324.199 1347 315L1347 251L1347 123C1347 103.634 1343.74 81.029 1347.23 62.0008C1348.55 54.7881 1354.87 54.0103 1361 54L1399 54C1405.99 54 1412.27 53.0361 1417 59L1418 59L1418 0L249 0L249 1C257.618 4.36688 261.489 14.403 265.85 22C270.042 29.3025 279.966 40.5535 280.684 49C281.138 54.3431 274.975 61.5452 272.421 66L248.421 108C243.377 116.798 236.574 136.796 227.787 141.972C223.957 144.228 217.287 143 213 143C201.143 143 185.493 145.723 174.043 142.682C169.703 141.529 167.747 136.565 165.719 133L150.85 107C143.035 93.3091 135.073 79.7049 127.281 66C124.711 61.4805 118.635 54.4022 119.042 49C119.69 40.423 130.028 28.3717 134.397 21C138.776 13.6101 142.299 3.96606 151 1C139.306 -3.90698 118.729 0 106 0L0 0z"/>
<path style="fill:#e9572d; stroke:none;" d="M151 0.557861C138.519 3.83759 130.511 26.6532 124.579 37C122.339 40.9065 117.834 46.2279 118.757 51C120.242 58.6788 127.435 67.3147 131.397 74C140.409 89.2087 148.753 104.811 157.799 120C161.395 126.038 165.386 138.16 171.39 141.972C175.028 144.282 181.862 143 186 143C198.23 143 215.075 146.045 226.815 142.682C230.824 141.534 232.688 136.298 234.579 133L249.421 107L272.421 67C275.138 62.2613 280.813 55.5798 281.111 50C281.346 45.5931 277.243 40.646 275.15 37C269.261 26.7417 263.593 12.3049 254.896 4.21375C248.027 -2.17651 236.649 0 228 0L176 0C168.147 0 158.629 -1.44672 151 0.557861z"/>
<path style="fill:#ab5501; stroke:none;" d="M251 1L252 2L251 1M146 2L147 3L146 2z"/>
<path style="fill:#7f0101; stroke:none;" d="M254 3L255 4L254 3z"/>
<path style="fill:#ab5501; stroke:none;" d="M255 4L256 5L255 4M263 17L264 18L263 17M131 25L132 26L131 25z"/>
<path style="fill:#7f0101; stroke:none;" d="M270 29L271 30L270 29z"/>
<path style="fill:#ab5501; stroke:none;" d="M120 44L121 45L120 44M281 48L282 49L281 48z"/>
<path style="fill:#1f3573; stroke:none;" d="M693 291L575 291L575 189L575 98C575 87.0139 578.413 69.2414 574.258 59.044C571.879 53.2057 565.174 54.0003 560 54L522 54C517.242 54 510.142 52.7254 506.434 56.4337C500.688 62.1797 504 80.3632 504 88L504 177L504 266C504 285.844 502.417 304.985 512.312 323C530.348 355.838 563.289 356 596 356L663 356C681.553 356 702.155 358.588 720 352.645C741.253 345.568 757.62 327.873 762.764 306C767.396 286.303 765 264.113 765 244L765 133L765 75C765 68.4523 766.605 57.7815 758.981 54.7423C746.221 49.6562 723.742 54 710 54C705.131 54 698.103 52.7809 694.742 57.2284C691.457 61.576 693 69.8662 693 75L693 119L693 291M880 285L880 177L880 94C880 84.3046 883.14 67.9939 879.142 59.1049C876.647 53.5582 870.09 54.002 865 54L826 54C821.041 54 814.212 52.8802 810.742 57.3441C806.22 63.1609 809 77.9254 809 85L809 158L809 264C809 296.647 811.163 329.597 845 345.68C866.467 355.883 892.867 352 916 352L983 352C989.33 352 1002.71 354.521 1007.49 349.566C1010.96 345.955 1010 339.566 1010 335C1010 323 1010.06 310.999 1010 299C1009.97 293.754 1009.6 288.124 1003.98 285.894C993.758 281.832 976.943 285 966 285L880 285M1265 201C1290.35 192.353 1293 167.061 1293 144C1293 112.937 1295.66 79.8411 1264 62.3125C1258.65 59.3491 1252.98 57.0043 1247 55.6651C1230.38 51.9436 1211.95 54 1195 54L1101 54L1066 54C1061.67 54 1055.81 53.0617 1052.43 56.4337C1048.57 60.2974 1050 68.0385 1050 73L1050 115L1050 286L1050 334C1050 339.399 1048.37 347.855 1054.06 350.972C1058.49 353.402 1066.09 352 1071 352L1109 352L1217 352C1238.92 352 1260.34 353.847 1279 340.076C1304.85 320.999 1302 291.517 1302 263C1302 248.457 1302.54 233.659 1294.11 221C1286.78 209.997 1276.49 206.092 1265 201M1352.04 54.7423C1344.63 57.763 1347 69.6494 1347 76L1347 140L1347 293L1347 333C1347 337.764 1345.75 344.769 1348.74 348.852C1352.03 353.346 1359.15 352 1364 352L1397 352C1401.84 352 1408.39 353.117 1412.96 351.258C1420.37 348.237 1418 336.351 1418 330L1418 266L1418 113L1418 73C1418 68.3015 1419.27 61.2208 1416.26 57.2284C1412.9 52.7809 1405.87 54 1401 54L1368 54C1363.16 54 1356.61 52.8828 1352.04 54.7423z"/>
<path style="fill:#e9572d; stroke:none;" d="M290.529 56.0278C281.606 61.816 274.861 81.7863 269.579 91C261.941 104.323 254.309 117.65 246.719 131C244.235 135.369 238.711 141.802 238.812 147C238.984 155.935 250.576 169.303 255 177C258.224 182.609 262.024 193.401 267.529 196.972C271.47 199.529 279.475 198 284 198L327 198L360 198C363.91 198 370.165 199.16 373.61 196.972C378.892 193.618 382.519 183.338 385.579 178C390.474 169.461 400.051 158.087 400.529 148C400.861 140.98 396.16 134.799 392.85 129C385.785 116.624 378.578 104.325 371.424 92C365.538 81.857 359.191 63.2697 348.985 57.0092C341.821 52.6151 329.121 55 321 55C313.463 55 296.927 51.8782 290.529 56.0278M55.0008 56.6489C42.5944 60.4095 34.8487 82.55 28.8503 93L8.14969 129C4.32209 135.668 -0.648059 141.893 0.10571 150C1.00029 159.621 9.45878 169.78 14.1505 178C17.2872 183.495 20.4039 192.399 25.3897 196.397C30.7792 200.718 45.3462 198 52 198L107 198C114.526 198 124.57 199.758 131.815 197.682C136.068 196.464 138.15 190.504 140.15 187L156.281 159C158.434 155.221 162.41 150.632 161.246 146C159.527 139.153 153.758 132.112 150.281 126C141.538 110.631 132.616 95.3581 123.85 80C120.243 73.6823 115.833 60.9791 109.61 57.0278C105.972 54.7176 99.138 56 95 56C82.907 56 66.5927 53.1353 55.0008 56.6489z"/>
<path style="fill:#ab5501; stroke:none;" d="M52 57L53 58L52 57M49 59L50 60L49 59M47 61L48 62L47 61M113 62L114 63L113 62M356 66L357 67L356 66M132 75L133 76L132 75M37 78L38 79L37 78M136 82L137 83L136 82M33 85L34 86L33 85z"/>
<path style="fill:#7f0101; stroke:none;" d="M367 85L368 86L367 85M140 89L141 90L140 89z"/>
<path style="fill:#ab5501; stroke:none;" d="M371 92L372 93L371 92z"/>
<path style="fill:#7f0101; stroke:none;" d="M132 95L133 96L132 95z"/>
<path style="fill:#ab5501; stroke:none;" d="M253 99L254 100L253 99M136 102L137 103L136 102M22 104L23 105L22 104M249 106L250 107L249 106M140 109L141 110L140 109z"/>
<path style="fill:#7f0101; stroke:none;" d="M382 111L383 112L382 111z"/>
<path style="fill:#ab5501; stroke:none;" d="M245 113L246 114L245 113M144 116L145 117L144 116M386 118L387 119L386 118z"/>
<path style="fill:#010101; stroke:none;" d="M1119 118L1119 173L1186 173C1194.82 173 1207.76 175.373 1216 171.991C1219.12 170.71 1221.65 168.293 1222.57 164.996C1224.99 156.247 1226.35 126.39 1218.89 120.514C1212.41 115.404 1198.8 118 1191 118L1119 118z"/>
<path style="fill:#ab5501; stroke:none;" d="M241 120L242 121L241 120M159 122L160 123L159 122z"/>
<path style="fill:#7f0101; stroke:none;" d="M11 123L12 124L11 123z"/>
<path style="fill:#ab5501; stroke:none;" d="M237 127L238 128L237 127M163 129L164 130L163 129M7 130L8 131L7 130M233 134L234 135L233 134M167 136L168 137L167 136M397 137L398 138L397 137M229 141L230 142L229 141z"/>
<path style="fill:#7f0101; stroke:none;" d="M159 142L160 143L159 142z"/>
<path style="fill:#ab5501; stroke:none;" d="M400 145L401 146L400 145M1 155L2 156L1 155M157 156L158 157L157 156M396 158L397 159L396 158M5 162L6 163L5 162M247 163L248 164L247 163z"/>
<path style="fill:#7f0101; stroke:none;" d="M392 165L393 166L392 165z"/>
<path style="fill:#ab5501; stroke:none;" d="M9 169L10 170L9 169M251 170L252 171L251 170M146 175L147 176L146 175z"/>
<path style="fill:#7f0101; stroke:none;" d="M13 176L14 177L13 176z"/>
<path style="fill:#ab5501; stroke:none;" d="M142 182L143 183L142 182M262 189L263 190L262 189M377 191L378 192L377 191z"/>
<path style="fill:#7f0101; stroke:none;" d="M266 196L267 197L266 196z"/>
<path style="fill:#e9572d; stroke:none;" d="M27.5285 209.028C22.142 212.507 18.7004 222.555 15.5787 228C10.6418 236.611 1.15263 247.888 0.391204 258C-0.127765 264.892 4.59207 271.324 7.85031 277C14.7546 289.028 21.8534 300.95 28.7191 313C34.8324 323.729 41.5177 342.347 52.0147 349.272C62.2129 356.001 83.2109 352 95 352C98.9098 352 105.165 353.16 108.61 350.972C117.851 345.104 124.943 324.445 130.424 315C137.976 301.988 145.66 289.048 153.15 276C155.856 271.286 161.491 264.599 161.562 259C161.676 249.934 150.125 236.75 145.719 229C142.474 223.293 138.612 212.429 132.79 209.028C128.537 206.543 120.772 208 116 208L74 208L41 208C37.139 208 30.9192 206.838 27.5285 209.028z"/>
<path style="fill:#ab5501; stroke:none;" d="M133 208L134 209L133 208z"/>
<path style="fill:#e9572d; stroke:none;" d="M267.61 209.028C262.328 212.578 259.008 222.613 255.799 228C251.083 235.919 240.271 248.734 239.606 258C239.206 263.579 244.887 270.417 247.603 275C255.245 287.896 262.531 301.003 270 314C275.494 323.559 282.461 343.823 291.61 349.972C295.089 352.311 301.99 351 306 351C317.655 351 339.9 354.331 349.957 347.991C360.088 341.603 367.004 322.24 372.85 312L393.579 276C397.369 269.389 401.999 263.018 400.787 255C399.382 245.706 391.189 236.041 386.579 228C383.493 222.618 379.993 212.385 374.621 209.028C370.376 206.374 361.844 208 357 208L315 208L281 208C277.211 208 270.906 206.812 267.61 209.028z"/>
<path style="fill:#ab5501; stroke:none;" d="M26 209L27 210L26 209M136 213L137 214L136 213z"/>
<path style="fill:#7f0101; stroke:none;" d="M261 218L262 219L261 218M381 219L382 220L381 219z"/>
<path style="fill:#ab5501; stroke:none;" d="M257 225L258 226L257 225M385 226L386 227L385 226z"/>
<path style="fill:#010101; stroke:none;" d="M1119 229L1119 289L1192 289C1201.83 289 1215.87 291.517 1225 287.347C1236.9 281.91 1232 256.843 1232 246C1232 240.717 1232.55 235.253 1227.89 231.653C1220.71 226.103 1205.61 229 1197 229L1119 229z"/>
<path style="fill:#ab5501; stroke:none;" d="M147 232L148 233L147 232M389 233L390 234L389 233M151 239L152 240L151 239z"/>
<path style="fill:#7f0101; stroke:none;" d="M7 242L8 243L7 242z"/>
<path style="fill:#ab5501; stroke:none;" d="M246 244L247 245L246 244M3 249L4 250L3 249z"/>
<path style="fill:#7f0101; stroke:none;" d="M158 251L159 252L158 251z"/>
<path style="fill:#ab5501; stroke:none;" d="M242 251L243 252L242 251M162 258L163 259L162 258M0 261L1 262L0 261M159 264L160 265L159 264z"/>
<path style="fill:#e9572d; stroke:none;" d="M171.39 265.028C168.003 267.178 166.082 272.633 164.15 276C159.352 284.359 154.517 292.709 149.603 301C141.943 313.928 134.599 327.043 126.989 340C124.475 344.281 118.776 350.814 119.067 356C119.423 362.335 126.619 370.55 129.719 376C134.439 384.296 139.362 397.552 147.093 403.347C152.88 407.685 161.188 407 168 407L211 407C223.282 407 243.125 410.706 253.985 403.992C260.25 400.117 263.748 391.211 267.281 385C271.485 377.61 282.064 365.594 282.332 357C282.503 351.509 276.64 344.594 274 340L251.579 301C246.186 291.594 238.992 270.679 229.671 265.028C226.122 262.876 219.988 264 216 264L185 264C181.09 264 174.835 262.84 171.39 265.028z"/>
<path style="fill:#ab5501; stroke:none;" d="M231 266L232 267L231 266M396 270L397 271L396 270z"/>
<path style="fill:#7f0101; stroke:none;" d="M155 271L156 272L155 271z"/>
<path style="fill:#ab5501; stroke:none;" d="M235 273L236 274L235 273M163 277L164 278L163 277M392 277L393 278L392 277M250 279L251 280L250 279M148 283L149 284L148 283M12 284L13 285L12 284M254 286L255 287L254 286z"/>
<path style="fill:#7f0101; stroke:none;" d="M156 289L157 290L156 289M16 291L17 292L16 291z"/>
<path style="fill:#ab5501; stroke:none;" d="M258 293L259 294L258 293M141 295L142 296L141 295M152 296L153 297L152 296M381 296L382 297L381 296z"/>
<path style="fill:#7f0101; stroke:none;" d="M250 299L251 300L250 299M262 300L263 301L262 300M137 302L138 303L137 302M377 303L378 304L377 303z"/>
<path style="fill:#ab5501; stroke:none;" d="M254 306L255 307L254 306M145 308L146 309L145 308M27 310L28 311L27 310M258 313L259 314L258 313M130 314L131 315L130 314M262 320L263 321L262 320M366 322L367 323L366 322M134 327L135 328L134 327M38 329L39 330L38 329z"/>
<path style="fill:#7f0101; stroke:none;" d="M362 329L363 330L362 329M119 333L120 334L119 333z"/>
<path style="fill:#ab5501; stroke:none;" d="M281 333L282 334L281 333M42 336L43 337L42 336M127 339L128 340L127 339M285 340L286 341L285 340M355 341L356 342L355 341M112 345L113 346L112 345z"/>
<path style="fill:#7f0101; stroke:none;" d="M289 347L290 348L289 347z"/>
<path style="fill:#ab5501; stroke:none;" d="M330 350L330 351L337 351L330 350z"/>
<path style="fill:#7f0101; stroke:none;" d="M337 350L338 351L337 350M281 353L282 354L281 353z"/>
<path style="fill:#ab5501; stroke:none;" d="M279 363L280 364L279 363M124 366L125 367L124 366z"/>
<path style="fill:#7f0101; stroke:none;" d="M128 373L129 374L128 373z"/>
<path style="fill:#ab5501; stroke:none;" d="M272 375L273 376L272 375z"/>
<path style="fill:#7f0101; stroke:none;" d="M268 382L269 383L268 382z"/>
<path style="fill:#ab5501; stroke:none;" d="M135 385L136 386L135 385M261 394L262 395L261 394z"/>
<path style="fill:#7f0101; stroke:none;" d="M253 404L254 405L253 404z"/>
<path style="fill:#ab5501; stroke:none;" d="M155 406L156 407L155 406M246 406L247 407L246 406z"/>
<path style="fill:#e9572d; stroke:none;" d="M639 456L639 506L648 506C648.001 499.554 648.485 495.883 653 491C657.617 500.718 662.134 505.999 673 506L660.73 484.424L672 470C659.824 470 656.284 475.71 648 484L648 456L639 456M1408 456L1408 506L1417 506L1417 456L1408 456M104 457L104 465L114 465L114 457L104 457M265 457L265 465L275 465L275 457L265 457M538 457L538 465L548 465L548 457L538 457M620 457L620 465L629 465L629 457L620 457z"/>
<path style="fill:#7f0101; stroke:none;" d="M714 457L715 458L714 457z"/>
<path style="fill:#e9572d; stroke:none;" d="M706 480C695.302 484.182 693.323 500.197 705.004 504.991C712.993 508.27 718.611 503.193 725.998 502.815C728.984 502.662 731.025 505.147 733 507L734 507L740 502L740 501C738.117 499.077 735.208 496.827 734.725 493.998C733.551 487.116 741.456 483.143 731 480L728 488L720 481C722.25 480.235 724.109 479.481 725.86 477.772C743.407 460.645 701.444 446.393 703.12 471C703.339 474.205 704.808 477.073 706 480M816 457L816 465L826 465L826 457L816 457M912 457L912 465L921 465L921 457L912 457M1262 457L1262 465L1271 465L1271 457L1262 457M11 458C11 469.269 8.00626 485.636 12.9198 496C19.0103 508.846 41.2542 510.487 48.7716 497.985C55.1455 487.384 52 469.867 52 458L43 458C43 467.798 45.5575 481.917 41.3472 490.985C37.7749 498.678 27.6933 499.919 22.7029 492.945C16.7664 484.649 20 467.752 20 458L11 458M408 458L408 506L442 506L442 497L417 497L417 458L408 458z"/>
<path style="fill:#ab5501; stroke:none;" d="M710 458L711 459L710 458z"/>
<path style="fill:#e9572d; stroke:none;" d="M768 458L768 506C778.002 506 791.836 508.38 800.985 503.547C811.141 498.182 808.528 486.051 800 481C801.659 479.133 803.377 477.39 804.262 474.995C811.856 454.454 778.766 458 768 458M987 458L987 506L995.972 504.397L997 492L997 458L987 458z"/>
<path style="fill:#ab5501; stroke:none;" d="M708 459L709 460L708 459z"/>
<path style="fill:#7f0101; stroke:none;" d="M797 459L798 460L797 459z"/>
<path style="fill:#e9572d; stroke:none;" d="M286 460L286 470L282 470L282 478L286 478C286 493.839 284.431 508.819 305 505L305 497C292.679 499.143 295 486.662 295 478L305 478L305 470L295 470L295 460L286 460M593 460L593 470L589 470L589 478L593 478C593 484.998 590.803 496.662 595.089 502.656C601.035 510.97 610.97 505.425 611 497C599.19 499.68 602 485.889 602 478C608.92 477.995 611.911 477.523 612 470L602 470L602 460L593 460z"/>
<path style="fill:#ab5501; stroke:none;" d="M799 460L800 461L799 460z"/>
<path style="fill:#e9572d; stroke:none;" d="M1051 460L1051 470L1047 470L1047 478L1051 478C1051 485.217 1048.95 496.692 1053.73 502.772C1060.02 510.779 1069.97 505.63 1070 497C1057.68 499.143 1060 486.662 1060 478L1070 478L1070 470L1060 470L1060 460L1051 460z"/>
<path style="fill:#7f0101; stroke:none;" d="M704 463L705 464L704 463z"/>
<path style="fill:#010101; stroke:none;" d="M714.317 466.047C710.268 468.544 712.634 477.418 717.787 474.623C722.964 471.816 719.82 462.654 714.317 466.047M777 466L777 478C781.421 478 786.712 478.767 790.956 477.347C795.463 475.84 797.476 470.323 792.772 467.573C788.36 464.994 781.896 466 777 466z"/>
<path style="fill:#e9572d; stroke:none;" d="M71 473C70.0964 468.783 65.644 470 62 470L62 506L71 506C71 499.182 69.217 489.416 71.7423 483.015C73.3091 479.044 77.8156 476.146 81.7716 478.873C87.9724 483.149 85 499.359 85 506L94 506C94 493.824 98.849 464.738 78.0015 469.393C75.297 469.997 73.2226 471.438 71 473M193 498C183.524 493.067 175.734 503.863 169 491L195 491C194.946 484.483 193.975 477.294 188.671 472.8C177.385 463.238 161.151 472.302 160.094 486C159.568 492.823 161.963 500.043 168.04 503.772C175.604 508.412 190.135 507.732 193 498z"/>
<path style="fill:#ab5501; stroke:none;" d="M182 469L183 470L182 469z"/>
<path style="fill:#e9572d; stroke:none;" d="M213 475L212 475L212 470L203 470L203 506L212 506C212 499.667 210.42 490.805 213.457 485.04C217.7 476.983 223.992 479.684 224 469C219.043 469.258 215.37 470.443 213 475M231 495C222.231 513.596 270.975 506.986 254.347 488.532C249.733 483.412 242.377 483.798 238 478C243.779 476.146 247.585 477.79 253 480L256 473C247.298 468.102 224.27 467.494 230.742 483.985C233.606 491.28 242.533 488.95 246.364 494.4C250.28 499.97 238.949 497.903 237.005 497.139C234.992 496.348 233.079 495.594 231 495z"/>
<path style="fill:#ab5501; stroke:none;" d="M322 469L323 470L322 469z"/>
<path style="fill:#e9572d; stroke:none;" d="M315 479C322.621 478.335 330.657 474.458 334 484C327.976 483.239 321.694 482.228 316.044 485.303C309.017 489.129 308.554 499.691 315.108 504.258C320.773 508.207 328.568 506.046 334 503C334.904 507.217 339.356 506 343 506C343 496.978 346.194 480.46 339.442 473.394C332.763 466.405 312.82 466.504 315 479z"/>
<path style="fill:#ab5501; stroke:none;" d="M331 469L332 470L331 469z"/>
<path style="fill:#e9572d; stroke:none;" d="M353 495L350 502C358.009 505.804 384.579 509.704 378.092 492.015C375.385 484.635 366.984 486.138 362.466 481.313C358.053 476.601 367.881 477.35 369.975 478.133C371.661 478.764 373.292 479.431 375 480L378 473C369.447 468.493 345.666 467.251 352.163 483.957C354.926 491.062 362.964 489.24 367.623 493.688C373.069 498.885 361.507 498.267 359.005 497.219C356.989 496.375 355.1 495.605 353 495M461 469.529C437.363 474.992 446.268 511.618 470 506.096C494.571 500.38 485.562 463.853 461 469.529M520 498C516.111 511.273 506.629 509.359 496 505L493 513C497.013 514.546 500.729 515.675 505 516.27C533.8 520.283 528 488.938 528 470C524.356 470 519.904 468.783 519 473C516.159 471.066 513.479 469.608 510 469.186C484.612 466.109 486.214 507.396 511 502.66C514.496 501.992 517.211 500.084 520 498M558 495C551.697 508.366 579.01 510.008 583.258 498.996C586.251 491.236 580.473 486.733 574 484.34C572.021 483.609 566.105 481.939 566.782 478.85C567.829 474.078 577.769 479.09 580 480L583 473C574.348 468.13 551.328 467.501 557.743 483.985C560.586 491.289 569.535 488.953 573.364 494.4C576.952 499.504 567.075 498.296 565.002 497.486C562.608 496.552 560.51 495.569 558 495z"/>
<path style="fill:#7f0101; stroke:none;" d="M574 469L575 470L574 469z"/>
<path style="fill:#e9572d; stroke:none;" d="M836 495L833 502C841.028 506.102 867.509 509.513 861.092 492.015C858.387 484.64 849.995 486.126 845.466 481.314C841.122 476.699 850.942 477.438 852.975 478.158L858 480L861 473C852.447 468.493 828.666 467.251 835.163 483.957C837.926 491.062 845.964 489.24 850.623 493.688C856.069 498.885 844.507 498.267 842.005 497.219C839.989 496.375 838.1 495.605 836 495M879 473C878.096 468.783 873.644 470 870 470L870 506L879 506C879 499.52 875.506 477.867 885.997 477.867C896.395 477.867 893 499.62 893 506L902 506C902 493.96 906.435 463.212 885.005 469.648C882.718 470.335 880.922 471.649 879 473M949 494C944.115 503.685 933.73 491.582 930.238 498.151C928.145 502.088 932.999 504.337 936.001 505.211C942.375 507.066 953.07 507.115 956.142 499.957C959.026 493.238 955.122 487.505 948.999 484.927C946.823 484.01 939.946 482.673 940.631 479.163C941.587 474.265 950.708 479.065 953 480C963.645 462.147 916.671 468.383 932.514 486.66C934.221 488.629 936.623 489.706 939 490.627C942.274 491.897 945.616 493.076 949 494M1017 473C1016.1 468.783 1011.64 470 1008 470L1008 506L1017 506C1017 499.182 1015.22 489.416 1017.74 483.015C1019.51 478.526 1024.64 476.025 1028.57 479.657C1033.78 484.484 1031 499.43 1031 506L1040 506C1040 493.824 1044.85 464.738 1024 469.393C1021.3 469.997 1019.22 471.438 1017 473M1108 498C1098.52 493.067 1090.73 503.863 1084 491L1110 491C1109.95 484.483 1108.98 477.294 1103.67 472.8C1092.39 463.238 1076.15 472.302 1075.09 486C1074.57 492.823 1076.96 500.043 1083.04 503.772C1090.6 508.412 1105.14 507.733 1108 498z"/>
<path style="fill:#7f0101; stroke:none;" d="M1097 469L1098 470L1097 469z"/>
<path style="fill:#e9572d; stroke:none;" d="M1128 475L1127 475L1127 470L1118 470L1118 506L1127 506C1127 499.667 1125.42 490.805 1128.46 485.04C1132.7 476.983 1138.99 479.684 1139 469C1134.04 469.258 1130.37 470.443 1128 475M1155 473C1154.1 468.783 1149.64 470 1146 470L1146 506L1155 506C1155 500.482 1152.26 472.001 1164.89 478.223C1172.17 481.807 1169 499.283 1169 506L1178 506C1178 493.824 1182.85 464.738 1162 469.393C1159.3 469.997 1157.22 471.438 1155 473z"/>
<path style="fill:#ab5501; stroke:none;" d="M1197 469L1198 470L1197 469z"/>
<path style="fill:#e9572d; stroke:none;" d="M1210 485C1206.74 483.78 1203.52 482.933 1200 483.105C1176.01 484.278 1187.89 515.948 1209 503L1218 506C1218 496.996 1221.5 479.042 1213.79 472.649C1209.82 469.359 1186.39 466.276 1189.95 475.867C1191.69 480.542 1197.55 477.082 1201 477.282C1205.89 477.567 1208.34 480.813 1210 485M1228 495L1225 502C1232.88 505.231 1260.02 510.115 1253.25 492.004C1250.38 484.322 1242.12 486.275 1237.47 481.313C1233.06 476.613 1242.89 477.322 1244.98 478.055C1246.67 478.649 1248.33 479.355 1250 480L1253 473C1244.26 468.08 1221.32 467.367 1227.6 483.985C1230.41 491.398 1239.49 488.933 1243.25 494.375C1246.99 499.792 1235.98 498.045 1234 497.219C1231.99 496.375 1230.1 495.605 1228 495M1294 469.529C1269.72 475.141 1279.62 511.713 1304 505.759C1327.92 499.918 1317.87 464.014 1294 469.529M1335 473C1334.1 468.783 1329.64 470 1326 470L1326 506L1335 506C1335 500.482 1332.26 472.001 1344.89 478.223C1352.17 481.807 1349 499.283 1349 506L1358 506C1358 493.824 1362.85 464.738 1342 469.393C1339.3 469.997 1337.22 471.438 1335 473z"/>
<path style="fill:#ab5501; stroke:none;" d="M1377 469L1378 470L1377 469z"/>
<path style="fill:#e9572d; stroke:none;" d="M1389 484C1384.21 483.394 1379.78 482.61 1375 483.928C1366.83 486.185 1361.58 496.949 1369.23 503.347C1374.9 508.096 1383.27 506.512 1389 503L1398 506C1398 497.178 1401.24 480.262 1394.58 473.394C1390.79 469.478 1368.23 465.541 1369.72 474.995C1370.87 482.265 1385.9 473.296 1389 484M104 470L104 506L113 506L113 470L104 470M120 470C123.11 479.135 127.199 488.039 130.8 497C132.111 500.262 133.253 504.671 137.101 505.677C142.237 507.02 144.167 502.999 145.799 498.999C149.661 489.535 154.639 479.963 157 470C143.785 470.01 142.55 483.09 139 494C133.979 482.672 134.409 470.002 120 470M265 470L265 506L274 506L274 470L265 470z"/>
<path style="fill:#ab5501; stroke:none;" d="M357 470L358 471L357 470M372 470L373 471L372 470M528 470L528 498L529 498L528 470z"/>
<path style="fill:#e9572d; stroke:none;" d="M539 470L539 506L548 506L548 470L539 470M620 470L620 506L629 506L629 470L620 470z"/>
<path style="fill:#ab5501; stroke:none;" d="M672 470L673 471L672 470z"/>
<path style="fill:#e9572d; stroke:none;" d="M816 470L816 506L825 506L825 470L816 470z"/>
<path style="fill:#ab5501; stroke:none;" d="M840 470L841 471L840 470M855 470L856 471L855 470M869 470L869 505L870 505L869 470z"/>
<path style="fill:#7f0101; stroke:none;" d="M882 470L883 471L882 470z"/>
<path style="fill:#e9572d; stroke:none;" d="M912 470L912 506L921 506L921 470L912 470M1262 470L1262 506L1271 506L1271 470L1262 470z"/>
<path style="fill:#7f0101; stroke:none;" d="M580 471L581 472L580 471z"/>
<path style="fill:#ab5501; stroke:none;" d="M729 471L730 472L729 471M934 471L935 472L934 471M188 472L189 473L188 472M313 472L314 473L313 472z"/>
<path style="fill:#7f0101; stroke:none;" d="M354 472L355 473L354 472z"/>
<path style="fill:#ab5501; stroke:none;" d="M477 472L478 473L477 472z"/>
<path style="fill:#7f0101; stroke:none;" d="M720 472L721 473L720 472M837 472L838 473L837 472z"/>
<path style="fill:#ab5501; stroke:none;" d="M955 472L956 473L955 472z"/>
<path style="fill:#7f0101; stroke:none;" d="M1103 472L1104 473L1103 472M1310 472L1311 473L1310 472z"/>
<path style="fill:#ab5501; stroke:none;" d="M146 473L147 474L146 473M899 473L900 474L899 473z"/>
<path style="fill:#7f0101; stroke:none;" d="M956 473L957 474L956 473z"/>
<path style="fill:#ab5501; stroke:none;" d="M131 474L132 475L131 474M190 474L191 475L190 474z"/>
<path style="fill:#7f0101; stroke:none;" d="M377 474L378 475L377 474M1105 474L1106 475L1105 474M1127 474L1128 475L1127 474z"/>
<path style="fill:#ab5501; stroke:none;" d="M1176 474L1177 475L1176 474z"/>
<path style="fill:#7f0101; stroke:none;" d="M1356 474L1357 475L1356 474z"/>
<path style="fill:#ab5501; stroke:none;" d="M656 475L657 476L656 475M1189 475L1190 476L1189 475M1227 475L1228 476L1227 475M1369 475L1370 476L1369 475z"/>
<path style="fill:#010101; stroke:none;" d="M169 485L186 485C182.902 474.663 172.098 474.663 169 485z"/>
<path style="fill:#ab5501; stroke:none;" d="M241 476L242 477L241 476M365 476L366 477L365 476M481 476L482 477L481 476M557 476L558 477L557 476z"/>
<path style="fill:#010101; stroke:none;" d="M1084 485L1101 485C1097.9 474.663 1087.1 474.663 1084 485z"/>
<path style="fill:#ab5501; stroke:none;" d="M1240 476L1241 477L1240 476z"/>
<path style="fill:#7f0101; stroke:none;" d="M1251 476L1252 477L1251 476M1314 476L1315 477L1314 476z"/>
<path style="fill:#ab5501; stroke:none;" d="M162 477L163 478L162 477M192 477L193 478L192 477M449 477L450 478L449 477M462 477L463 478L462 477z"/>
<path style="fill:#010101; stroke:none;" d="M463.004 477.576C451.091 480.873 455.716 500.96 467.999 498.103C481.058 495.065 475.947 473.994 463.004 477.576M506.019 477.742C494.508 482.291 502.876 498.748 513.956 493.991C525.121 489.197 516.803 473.48 506.019 477.742z"/>
<path style="fill:#7f0101; stroke:none;" d="M611 477L612 478L611 477M726 477L727 478L726 477z"/>
<path style="fill:#ab5501; stroke:none;" d="M954 477L955 478L954 477M1077 477L1078 478L1077 477z"/>
<path style="fill:#7f0101; stroke:none;" d="M1107 477L1108 478L1107 477z"/>
<path style="fill:#ab5501; stroke:none;" d="M1164 477L1165 478L1164 477z"/>
<path style="fill:#7f0101; stroke:none;" d="M1295 477L1296 478L1295 477z"/>
<path style="fill:#010101; stroke:none;" d="M1296 477.576C1284.09 480.873 1288.72 500.979 1301 498.103C1313.95 495.068 1308.99 473.983 1296 477.576z"/>
<path style="fill:#ab5501; stroke:none;" d="M1344 477L1345 478L1344 477M82 478L83 479L82 478M123 478L124 479L123 478z"/>
<path style="fill:#7f0101; stroke:none;" d="M331 478L332 479L331 478z"/>
<path style="fill:#ab5501; stroke:none;" d="M515 478L516 479L515 478z"/>
<path style="fill:#7f0101; stroke:none;" d="M834 478L835 479L834 478M854 478L855 479L854 478M1190 478L1191 479L1190 478M1370 478L1371 479L1370 478z"/>
<path style="fill:#ab5501; stroke:none;" d="M1397 478L1398 479L1397 478z"/>
<path style="fill:#7f0101; stroke:none;" d="M83 479L84 480L83 479z"/>
<path style="fill:#ab5501; stroke:none;" d="M161 479L162 480L161 479M1029 479L1030 480L1029 479M1076 479L1077 480L1076 479z"/>
<path style="fill:#7f0101; stroke:none;" d="M1248 479L1249 480L1248 479z"/>
<path style="fill:#ab5501; stroke:none;" d="M702 481L703 482L702 481z"/>
<path style="fill:#7f0101; stroke:none;" d="M160 482L161 483L160 482z"/>
<path style="fill:#ab5501; stroke:none;" d="M214 482L215 483L214 482z"/>
<path style="fill:#7f0101; stroke:none;" d="M241 482L242 483L241 482z"/>
<path style="fill:#ab5501; stroke:none;" d="M568 482L569 483L568 482M802 482L803 483L802 482M1075 482L1076 483L1075 482M1129 482L1130 483L1129 482z"/>
<path style="fill:#7f0101; stroke:none;" d="M125 483L126 484L125 483M194 483L195 484L194 483z"/>
<path style="fill:#ab5501; stroke:none;" d="M321 483L322 484L321 483M738 483L739 484L738 483M944 483L945 484L944 483M1209.33 483.667L1209.67 484.333L1209.33 483.667z"/>
<path style="fill:#7f0101; stroke:none;" d="M1376 483L1377 484L1376 483z"/>
<path style="fill:#ab5501; stroke:none;" d="M317 484L318 485L317 484M475 484L476 485L475 484M1389 484L1390 485L1389 484M371 485L372 486L371 485z"/>
<path style="fill:#010101; stroke:none;" d="M711 485C701.261 493.926 711.111 501.177 721 496L711 485z"/>
<path style="fill:#ab5501; stroke:none;" d="M854 485L855 486L854 485z"/>
<path style="fill:#7f0101; stroke:none;" d="M1190 485L1191 486L1190 485M1370 485L1371 486L1370 485z"/>
<path style="fill:#ab5501; stroke:none;" d="M212 486L213 487L212 486M373 486L374 487L373 486z"/>
<path style="fill:#7f0101; stroke:none;" d="M709 486L710 487L709 486z"/>
<path style="fill:#010101; stroke:none;" d="M777 486L777 498C780.78 498 806.961 497.33 796.482 487.894C792.263 484.093 782.29 486 777 486z"/>
<path style="fill:#7f0101; stroke:none;" d="M806 486L807 487L806 486z"/>
<path style="fill:#ab5501; stroke:none;" d="M856 486L857 487L856 486M1127 486L1128 487L1127 486z"/>
<path style="fill:#7f0101; stroke:none;" d="M42 487L43 488L42 487M253 487L254 488L253 487M727 487L728 488L727 487M796 487L797 488L796 487M934 488L935 489L934 488z"/>
<path style="fill:#ab5501; stroke:none;" d="M51 489L52 490L51 489M149 489L150 490L149 489z"/>
<path style="fill:#010101; stroke:none;" d="M335 491C333.023 490.331 331.091 489.701 328.995 489.478C312.313 487.705 324.394 508.197 333.141 495.891C334.206 494.393 334.546 492.734 335 491z"/>
<path style="fill:#7f0101; stroke:none;" d="M329 489L330 490L329 489z"/>
<path style="fill:#ab5501; stroke:none;" d="M807 489L808 490L807 489z"/>
<path style="fill:#010101; stroke:none;" d="M1200.02 489.587C1191.74 491.826 1195.27 501.182 1203 499.384C1212.51 497.17 1209.2 487.101 1200.02 489.587M1380.02 489.587C1371.74 491.826 1375.27 501.182 1383 499.384C1392.51 497.17 1389.2 487.101 1380.02 489.587z"/>
<path style="fill:#7f0101; stroke:none;" d="M501 490L502 491L501 490z"/>
<path style="fill:#ab5501; stroke:none;" d="M798 490L799 491L798 490M256 491L257 492L256 491z"/>
<path style="fill:#7f0101; stroke:none;" d="M363 491L364 492L363 491M734 491L735 492L734 491M846 491L847 492L846 491z"/>
<path style="fill:#ab5501; stroke:none;" d="M139 492L140 493L139 492M366 492L367 493L366 492z"/>
<path style="fill:#7f0101; stroke:none;" d="M484 492L485 493L484 492z"/>
<path style="fill:#ab5501; stroke:none;" d="M849 492L850 493L849 492M1307 493L1308 494L1307 493M147 494L148 495L147 494M706 494L707 495L706 494z"/>
<path style="fill:#7f0101; stroke:none;" d="M948 494L949 495L948 494M1185 494L1186 495L1185 494z"/>
<path style="fill:#ab5501; stroke:none;" d="M1365 494L1366 495L1365 494M233 495L234 496L233 495z"/>
<path style="fill:#7f0101; stroke:none;" d="M483 495L484 496L483 495z"/>
<path style="fill:#ab5501; stroke:none;" d="M666 495L667 496L666 495z"/>
<path style="fill:#7f0101; stroke:none;" d="M807 495L808 496L807 495z"/>
<path style="fill:#ab5501; stroke:none;" d="M1185 495L1186 496L1185 495M248 496L249 497L248 496M795 496L796 497L795 496M935 496L936 497L935 496M1281 496L1282 497L1281 496z"/>
<path style="fill:#7f0101; stroke:none;" d="M191 497L192 498L191 497z"/>
<path style="fill:#ab5501; stroke:none;" d="M461 497L462 498L461 497M603 497L604 498L603 497M791 497L792 498L791 497z"/>
<path style="fill:#7f0101; stroke:none;" d="M937 497L938 498L937 497z"/>
<path style="fill:#ab5501; stroke:none;" d="M1051 497L1052 498L1051 497z"/>
<path style="fill:#7f0101; stroke:none;" d="M1294 497L1295 498L1294 497z"/>
<path style="fill:#ab5501; stroke:none;" d="M711 498L712 499L711 498M1196 498L1197 499L1196 498M1236 498L1237 499L1236 498M1376 498L1377 499L1376 498M163 499L164 500L163 499M450 499L451 500L450 499z"/>
<path style="fill:#7f0101; stroke:none;" d="M519 499L520 500L519 499z"/>
<path style="fill:#ab5501; stroke:none;" d="M593 499L594 500L593 499M658 499L659 500L658 499M698 499L699 500L698 499M1078 499L1079 500L1078 499z"/>
<path style="fill:#7f0101; stroke:none;" d="M498 500L499 501L498 500z"/>
<path style="fill:#ab5501; stroke:none;" d="M928 500L929 501L928 500M1252 500L1253 501L1252 500M500 501L501 502L500 501M955 501L956 502L955 501M1052 501L1053 502L1052 501M581 502L582 503L581 502z"/>
<path style="fill:#7f0101; stroke:none;" d="M660 502L661 503L660 502M580 503L581 504L580 503M729 503L730 504L729 503z"/>
<path style="fill:#ab5501; stroke:none;" d="M1228 503L1229 504L1228 503M41 504L42 505L41 504M331 504L332 505L331 504M355 504L356 505L355 504M373 504L374 505L373 504z"/>
<path style="fill:#7f0101; stroke:none;" d="M456 504L457 505L456 504M596 504L597 505L596 504z"/>
<path style="fill:#ab5501; stroke:none;" d="M730 504L731 505L730 504M736 504L737 505L736 504M856 504L857 505L856 504M1190 504L1191 505L1190 504z"/>
<path style="fill:#7f0101; stroke:none;" d="M1230 504L1231 505L1230 504z"/>
<path style="fill:#ab5501; stroke:none;" d="M1289 504L1290 505L1289 504M1370 504L1371 505L1370 504M134 505L135 506L134 505z"/>
<path style="fill:#7f0101; stroke:none;" d="M291 505L292 506L291 505z"/>
<path style="fill:#ab5501; stroke:none;" d="M302 505L303 506L302 505z"/>
<path style="fill:#7f0101; stroke:none;" d="M329 505L330 506L329 505z"/>
<path style="fill:#ab5501; stroke:none;" d="M472 505L473 506L472 505z"/>
<path style="fill:#7f0101; stroke:none;" d="M517 505L518 506L517 505z"/>
<path style="fill:#ab5501; stroke:none;" d="M731 505L732 506L731 505M794 505L795 506L794 505M996 505L997 506L996 505M1192 505L1193 506L1192 505M1204 505L1205 506L1204 505M1209 505L1210 506L1209 505M1233 505L1234 506L1233 505z"/>
<path style="fill:#7f0101; stroke:none;" d="M1246 505L1247 506L1246 505M1305 505L1306 506L1305 505z"/>
<path style="fill:#ab5501; stroke:none;" d="M1372 505L1373 506L1372 505M1384 505L1385 506L1384 505M1389 505L1390 506L1389 505M30 506L31 507L30 506M176 506L177 507L176 506M180 506L181 507L180 506M322 506L323 507L322 506z"/>
<path style="fill:#7f0101; stroke:none;" d="M463 506L464 507L463 506z"/>
<path style="fill:#ab5501; stroke:none;" d="M732 506L733 507L732 506M1091 506L1092 507L1091 506M1095 506L1096 507L1095 506M1197 506L1198 507L1197 506z"/>
<path style="fill:#7f0101; stroke:none;" d="M1296 506L1297 507L1296 506z"/>
<path style="fill:#ab5501; stroke:none;" d="M1300 506L1301 507L1300 506M1377 506L1378 507L1377 506M517 515L518 516L517 515M506 516L507 517L506 516z"/>
</svg>
