<?xml version="1.0" standalone="yes"?>
<svg xmlns="http://www.w3.org/2000/svg" width="1418" height="517">
<path style="fill:#fffffe; stroke:none;" d="M0 0L0 145L1 145C7.57172 122.659 25.8345 100.211 37.4213 80C41.8893 72.2065 46.1762 60.9248 55 57.2284C66.022 52.6111 84.1399 56 96 56C99.9182 56 106.176 54.8246 109.366 57.6034C113.503 61.2085 116.011 68.3172 118.799 73C126.267 85.5395 133.32 98.3383 140.579 111L155 136C156.94 139.376 160.735 143.928 160.536 148C160.224 154.389 153.276 162.553 150.15 168C145.672 175.8 139.749 192.441 131.815 196.972C127.097 199.667 118.287 198 113 198L68 198L40 198C36.2469 198 30.6766 198.999 27.3287 196.972C23.2321 194.492 20.8761 188.007 18.5787 184C12.6684 173.691 5.06702 163.173 1 152L0 152L0 517L1418 517L1418 346L1417 346C1410.69 357.506 1379.77 352 1368 352C1363.39 352 1357.38 352.98 1353.02 351.258C1348.55 349.496 1347.15 345.431 1347.02 341C1345.11 280.135 1347 218.899 1347 158L1347 94C1347 83.7871 1345.39 72.0474 1347.23 62.0008C1348.52 54.9623 1354.98 54.0302 1361 54.0008C1374 53.9373 1387 54 1400 54C1406.82 54 1413.19 53.4111 1417 60L1418 60L1418 0L248 0L248 1C256.812 4.41638 260.245 13.3528 264.799 21C269.197 28.3838 279.368 40.3718 279.971 49C280.358 54.5346 274.478 61.3945 271.85 66L248.421 107C243.377 115.798 236.574 135.796 227.787 140.972C223.957 143.228 217.287 142 213 142C201.143 142 185.493 144.723 174.043 141.682C169.703 140.529 167.747 135.565 165.719 132C160.771 123.303 155.666 114.696 150.719 106L127.85 66C125.325 61.5774 119.211 54.6773 119.287 49.4244C119.403 41.4062 130.325 28.9424 134.281 22C138.762 14.135 142.864 4.10614 152 1C140.068 -4.00677 118.991 0 106 0L0 0z"/>
<path style="fill:#a7afc8; stroke:none;" d="M152.667 0.333313L153.333 0.666687L152.667 0.333313z"/>
<path style="fill:#e9592f; stroke:none;" d="M154 0.46759C139.577 3.19415 132.703 24.5685 125.989 36C123.501 40.2372 118.751 45.7533 119.743 51C121.149 58.4348 127.844 66.486 131.579 73L157.421 118C161.049 124.328 165.339 136.957 171.529 140.972C175.101 143.289 181.92 142 186 142C198.166 142 215.134 145.097 226.79 141.682C230.706 140.535 232.573 135.224 234.421 132L249.281 106C256.682 92.9823 264.131 79.991 271.579 67C274.307 62.2403 279.939 55.5717 280.357 50C280.692 45.5475 276.372 40.6711 274.281 37C268.461 26.786 262.992 12.7382 254.482 4.5332C247.833 -1.87781 236.419 0 228 0C204.481 0 177.094 -3.89819 154 0.46759z"/>
<path style="fill:#a7afc8; stroke:none;" d="M246.667 0.333313L247.333 0.666687L246.667 0.333313M149 1L150 2L149 1M250 1L251 2L250 1M147 2L148 3L147 2M253 3L254 4L253 3M255 5L256 6L255 5M256 6L257 7L256 6M142 7L143 8L142 7M257 8L258 9L257 8M141 9L142 10L141 9M259 11L260 12L259 11M260 13L261 14L260 13M138 14L139 15L138 14M137 16L138 17L137 16M263 18L264 19L263 18M135 19L136 20L135 19M264 20L265 21L264 20M134 21L135 22L134 21M266 23L267 24L266 23M267 25L268 26L267 25M131 26L132 27L131 26M130 28L131 29L130 28M270 30L271 31L270 30M271 32L272 33L271 32M127 33L128 34L127 33M126 35L127 36L126 35M274 37L275 38L274 37M124 38L125 39L124 38M275 39L276 40L275 39M123 40L124 41L123 40M277 42L278 43L277 42M278 44L279 45L278 44M120 45L121 46L120 45M119 47L120 48L119 47M118 49L119 50L118 49M119 51L120 52L119 51M120 53L121 54L120 53M278 54L279 55L278 54M510.667 54.3333L511.333 54.6667L510.667 54.3333z"/>
<path style="fill:#7d8aae; stroke:none;" d="M512 54L512 55L567 55L549 54L512 54z"/>
<path style="fill:#a7afc8; stroke:none;" d="M567.667 54.3333L568.333 54.6667L567.667 54.3333M699.667 54.3333L700.333 54.6667L699.667 54.3333z"/>
<path style="fill:#7d8aae; stroke:none;" d="M701 54L701 55L756 55L738 54L701 54z"/>
<path style="fill:#a7afc8; stroke:none;" d="M756.667 54.3333L757.333 54.6667L756.667 54.3333M815.667 54.3333L816.333 54.6667L815.667 54.3333z"/>
<path style="fill:#7d8aae; stroke:none;" d="M817 54L817 55L872 55L854 54L817 54z"/>
<path style="fill:#a7afc8; stroke:none;" d="M872.667 54.3333L873.333 54.6667L872.667 54.3333M1056.67 54.3333L1057.33 54.6667L1056.67 54.3333z"/>
<path style="fill:#7d8aae; stroke:none;" d="M1058 54L1058 55L1233 55L1216 54L1181 54L1058 54z"/>
<path style="fill:#a7afc8; stroke:none;" d="M1233 54L1233 55L1238 55L1233 54M1353 54L1354 55L1353 54z"/>
<path style="fill:#7d8aae; stroke:none;" d="M1354 54L1354 55L1410 55L1392 54L1354 54z"/>
<path style="fill:#a7afc8; stroke:none;" d="M1410.67 54.3333L1411.33 54.6667L1410.67 54.3333M121 55L122 56L121 55z"/>
<path style="fill:#e9592f; stroke:none;" d="M291.39 56.0278C288.009 58.1746 286.072 63.6337 284.15 67L269.85 92L248.15 130C245.471 134.694 239.744 141.406 239.784 147C239.847 155.875 251.307 169.456 255.799 177C259.008 182.387 262.328 192.422 267.61 195.972C271.447 198.552 279.554 197 284 197L327 197L360 197C363.854 197 370.089 198.166 373.471 195.972C378.737 192.556 382.226 182.362 385.281 177C390.006 168.706 398.55 158.671 399.772 149C400.647 142.075 395.939 135.629 392.603 130C385.546 118.091 378.712 106.023 371.85 94C365.883 83.5476 359.195 64.6636 348.96 57.9946C341.486 53.1244 330.484 55 322 55C314.362 55 297.912 51.8856 291.39 56.0278z"/>
<path style="fill:#a7afc8; stroke:none;" d="M343 55L344 56L343 55z"/>
<path style="fill:#7d8aae; stroke:none;" d="M508 55L509 56L508 55z"/>
<path style="fill:#1f3573; stroke:none;" d="M574 292L574 185L574 91C574 83.1405 577.521 63.6207 572.258 57.4337C567.168 51.45 546.344 55 539 55C531.375 55 513.419 51.7107 507.318 56.7423C501.968 61.1547 505 78.5828 505 85L505 166L505 262C505 297.981 505.313 333.557 544 350.127C557.609 355.956 571.535 355 586 355L644 355C673.804 355 711.392 361.675 737 343.215C763.422 324.168 764 295.405 764 266L764 127L764 78C764 72.4434 765.8 62.9157 762.258 58.2284C758.757 53.5965 751.064 55 746 55C731.411 55 714.343 52.5329 700.015 55.2284C693.157 56.5186 694 63.5678 694 69L694 111L694 241L694 276C694 279.843 695.208 286.332 692.972 289.682C689.307 295.175 669.072 292 663 292L574 292z"/>
<path style="fill:#7d8aae; stroke:none;" d="M570 55L571 56L570 55M697 55L698 56L697 55M759 55L760 56L759 55z"/>
<path style="fill:#a7afc8; stroke:none;" d="M760 55L761 56L760 55M813 55L814 56L813 55z"/>
<path style="fill:#1f3573; stroke:none;" d="M879 286L879 179L879 89C879 81.444 882.334 62.9702 876.682 57.3179C871.141 51.7763 853.39 55 846 55C838.112 55 818.19 51.4462 812.318 57.3179C807.228 62.4073 810 77.284 810 84L810 158L810 262C810 295.866 811.313 329.482 847 345.688C869.046 355.699 896.424 352 920 352L983 352C989.621 352 1001.24 354.152 1006.57 349.297C1010.18 346.003 1009 339.386 1009 335L1009 300C1009 295.038 1009.48 288.993 1003.96 286.742C994.001 282.686 976.721 286 966 286L879 286z"/>
<path style="fill:#a7afc8; stroke:none;" d="M875 55L876 56L875 55z"/>
<path style="fill:#7d8aae; stroke:none;" d="M1054 55L1055 56L1054 55z"/>
<path style="fill:#1f3573; stroke:none;" d="M1262 202C1270.83 197.292 1278.98 193.952 1284.53 185C1292.6 172.007 1292 157.679 1292 143C1292 117.147 1295.55 89.4735 1273.96 70.4391C1255.31 53.995 1233.24 55 1210 55L1107 55L1069 55C1064.43 55 1057.22 53.6766 1053.39 56.7423C1046.1 62.591 1050 84.5088 1050 93L1050 197L1050 306C1050 316.538 1045.77 338.983 1051.86 347.867C1055.04 352.507 1061.05 351.998 1066 352L1103 352L1206 352C1225.82 352 1247.23 354.158 1266 346.547C1302.02 331.946 1301 297.625 1301 265C1301 236.839 1295.95 206.593 1262 202z"/>
<path style="fill:#7d8aae; stroke:none;" d="M1241.67 55.3333L1242.33 55.6667L1241.67 55.3333z"/>
<path style="fill:#a7afc8; stroke:none;" d="M1243.67 55.3333L1244.33 55.6667L1243.67 55.3333M1350 55L1348 58L1350 55z"/>
<path style="fill:#7d8aae; stroke:none;" d="M1351 55L1352 56L1351 55z"/>
<path style="fill:#1f3573; stroke:none;" d="M1352.06 55.7423C1345.47 58.4992 1348 71.2537 1348 77L1348 141L1348 294L1348 333C1348 337.515 1346.6 344.954 1349.6 348.721C1353.05 353.048 1360.14 352 1365 352C1378.24 352 1399.67 356.115 1411.96 351.106C1419.38 348.083 1417 336.392 1417 330L1417 267L1417 116L1417 75C1417 70.1948 1418.43 62.49 1415.82 58.2284C1413.02 53.6426 1405.53 55 1401 55L1368 55C1363.19 55 1356.57 53.8536 1352.06 55.7423z"/>
<path style="fill:#7d8aae; stroke:none;" d="M1413 55L1414 56L1413 55z"/>
<path style="fill:#a7afc8; stroke:none;" d="M56 56L56 57L59 57L56 56z"/>
<path style="fill:#e9592f; stroke:none;" d="M59 56.4398C43.8133 58.9044 36.5797 80.959 29.7191 93C22.8529 105.051 15.7254 116.954 8.84954 129C5.75949 134.414 1.06665 140.629 0.418981 147C-0.138986 152.489 3.13853 157.457 5.71914 162C11.5517 172.267 16.8804 186.012 24.9043 194.682C29.7154 199.881 45.3726 196.997 52 197C70.2734 197.007 88.6522 198 107 198C114.296 198 123.853 199.639 130.895 197.682C135.182 196.491 137.32 190.504 139.397 187C145.084 177.402 150.596 167.676 156.15 158C158.433 154.022 161.994 149.763 160.211 145C151.866 122.707 135.083 100.555 123.011 80C119.285 73.6556 115.073 60.909 108.671 57.0278C105.122 54.8759 98.9881 56 95 56C83.3115 56 70.5486 54.5656 59 56.4398z"/>
<path style="fill:#a7afc8; stroke:none;" d="M109 56L110 57L109 56M277 56L278 57L277 56M346 56L347 57L346 56M506 56L507 57L506 56M572 56L573 57L572 56M761 56L762 57L761 56z"/>
<path style="fill:#7d8aae; stroke:none;" d="M812 56L813 57L812 56M876 56L877 57L876 56M1247 56L1248 57L1247 56z"/>
<path style="fill:#a7afc8; stroke:none;" d="M1248 56L1249 57L1248 56M1415 56L1416 57L1415 56M53 57L54 58L53 57M348 57L349 58L348 57M505 57L506 58L505 57M762 57L763 58L762 57z"/>
<path style="fill:#7d8aae; stroke:none;" d="M811 57L812 58L811 57M877 57L878 58L877 57M1250 57L1251 58L1250 57z"/>
<path style="fill:#a7afc8; stroke:none;" d="M1251 57L1252 58L1251 57M110 58L111 59L110 58M123 58L124 59L123 58z"/>
<path style="fill:#7d8aae; stroke:none;" d="M573 58L574 59L573 58M694 58L695 59L694 58M810 58L811 59L810 58z"/>
<path style="fill:#a7afc8; stroke:none;" d="M878 58L879 59L878 58z"/>
<path style="fill:#7d8aae; stroke:none;" d="M1051 58L1052 59L1051 58M1253 58L1254 59L1253 58z"/>
<path style="fill:#a7afc8; stroke:none;" d="M1254 58L1255 59L1254 58z"/>
<path style="fill:#7d8aae; stroke:none;" d="M1416 58L1417 59L1416 58z"/>
<path style="fill:#a7afc8; stroke:none;" d="M50 59L51 60L50 59M288 59L289 60L288 59M504 59L505 60L504 59z"/>
<path style="fill:#7d8aae; stroke:none;" d="M763 59L764 60L763 59z"/>
<path style="fill:#a7afc8; stroke:none;" d="M1050 59L1051 60L1050 59z"/>
<path style="fill:#7d8aae; stroke:none;" d="M1256 59L1257 60L1256 59z"/>
<path style="fill:#a7afc8; stroke:none;" d="M1347 59L1348 60L1347 59M124 60L125 61L124 60z"/>
<path style="fill:#7d8aae; stroke:none;" d="M504 60L504 296L505 296L505 130L505 82L504 60z"/>
<path style="fill:#a7afc8; stroke:none;" d="M574 60L574 291L575 291L575 128L575 81L574 60M693 60L694 61L693 60M809 60L810 61L809 60M879.333 60.6667L879.667 61.3333L879.333 60.6667z"/>
<path style="fill:#7d8aae; stroke:none;" d="M1050 60L1051 61L1050 60M1258 60L1259 61L1258 60z"/>
<path style="fill:#a7afc8; stroke:none;" d="M1259 60L1260 61L1259 60z"/>
<path style="fill:#7d8aae; stroke:none;" d="M1347 60L1347 346L1348 346L1348 144L1348 86L1347 60z"/>
<path style="fill:#a7afc8; stroke:none;" d="M1417 60L1418 61L1417 60M274 61L275 62L274 61M287 61L288 62L287 61z"/>
<path style="fill:#7d8aae; stroke:none;" d="M693 61L693 291L694 291L694 129L694 82L693 61M809 61L809 291L810 291L810 129L810 82L809 61M1260 61L1261 62L1260 61z"/>
<path style="fill:#a7afc8; stroke:none;" d="M1261 61L1262 62L1261 61z"/>
<path style="fill:#7d8aae; stroke:none;" d="M1417 61L1417 344L1418 344L1418 144L1418 87L1417 61z"/>
<path style="fill:#a7afc8; stroke:none;" d="M47 62L48 63L47 62M353 62L354 63L353 62z"/>
<path style="fill:#7d8aae; stroke:none;" d="M879 62L879 286L880 286L880 128L880 83L879 62M1262 62L1263 63L1262 62z"/>
<path style="fill:#a7afc8; stroke:none;" d="M113 63L114 64L113 63M273 63L274 64L273 63z"/>
<path style="fill:#7d8aae; stroke:none;" d="M1264 63L1265 64L1264 63z"/>
<path style="fill:#a7afc8; stroke:none;" d="M1266 64L1267 65L1266 64M114 65L115 66L114 65M127 65L128 66L127 65z"/>
<path style="fill:#7d8aae; stroke:none;" d="M1267 65L1268 66L1267 65z"/>
<path style="fill:#a7afc8; stroke:none;" d="M284 66L285 67L284 66M44 67L45 68L44 67M128 67L129 68L128 67M356 67L357 68L356 67M1270 67L1271 68L1270 67M270 68L271 69L270 68M283 68L284 69L283 68z"/>
<path style="fill:#7d8aae; stroke:none;" d="M1271 68L1272 69L1271 68z"/>
<path style="fill:#a7afc8; stroke:none;" d="M43 69L44 70L43 69M357 69L358 70L357 69z"/>
<path style="fill:#7d8aae; stroke:none;" d="M1272 69L1273 70L1272 69z"/>
<path style="fill:#a7afc8; stroke:none;" d="M117 70L118 71L117 70M269 70L270 71L269 70M41 72L42 73L41 72M118 72L119 73L118 72M131 72L132 73L131 72M280 73L281 74L280 73M40 74L41 75L40 74M132 74L133 75L132 74M360 74L361 75L360 74M120 75L121 76L120 75M266 75L267 76L266 75M279 75L280 76L279 75z"/>
<path style="fill:#7d8aae; stroke:none;" d="M1278 75L1279 76L1278 75z"/>
<path style="fill:#a7afc8; stroke:none;" d="M361 76L362 77L361 76z"/>
<path style="fill:#7d8aae; stroke:none;" d="M1279 76L1280 77L1279 76z"/>
<path style="fill:#a7afc8; stroke:none;" d="M121 77L122 78L121 77M265 77L266 78L265 77M1280 77L1281 78L1280 77M1281 78L1282 79L1281 78M37 79L38 80L37 79M122 79L123 80L122 79M135 79L136 80L135 79M363 79L364 80L363 79M276 80L277 81L276 80z"/>
<path style="fill:#7d8aae; stroke:none;" d="M1282 80L1283 81L1282 80z"/>
<path style="fill:#a7afc8; stroke:none;" d="M36 81L37 82L36 81M136 81L137 82L136 81M364 81L365 82L364 81M1283 81L1284 82L1283 81M124 82L125 83L124 82M262 82L263 83L262 82M275 82L276 83L275 82z"/>
<path style="fill:#7d8aae; stroke:none;" d="M1284 83L1285 84L1284 83z"/>
<path style="fill:#a7afc8; stroke:none;" d="M125 84L126 85L125 84M261 84L262 85L261 84M1285 84L1286 85L1285 84z"/>
<path style="fill:#7d8aae; stroke:none;" d="M1285 85L1286 86L1285 85z"/>
<path style="fill:#a7afc8; stroke:none;" d="M33 86L34 87L33 86M139 86L140 87L139 86M367 86L368 87L367 86M1286 86L1287 87L1286 86M272 87L273 88L272 87M32 88L33 89L32 88M140 88L141 89L140 88M368 88L369 89L368 88M1287 88L1288 89L1287 88M128 89L129 90L128 89M258 89L259 90L258 89M271 89L272 90L271 89z"/>
<path style="fill:#7d8aae; stroke:none;" d="M1287 89L1288 90L1287 89z"/>
<path style="fill:#a7afc8; stroke:none;" d="M1288 90L1289 91L1288 90M30 91L31 92L30 91M129 91L130 92L129 91M257 91L258 92L257 91z"/>
<path style="fill:#7d8aae; stroke:none;" d="M1288 91L1289 92L1288 91z"/>
<path style="fill:#a7afc8; stroke:none;" d="M29 93L30 94L29 93M143 93L144 94L143 93M371 93L372 94L371 93M1289 93L1290 94L1289 93M268 94L269 95L268 94z"/>
<path style="fill:#7d8aae; stroke:none;" d="M1289 94L1290 95L1289 94z"/>
<path style="fill:#a7afc8; stroke:none;" d="M28 95L29 96L28 95M144 95L145 96L144 95M372 95L373 96L372 95M132 96L133 97L132 96M254 96L255 97L254 96M267 96L268 97L267 96M1290 96L1291 97L1290 96z"/>
<path style="fill:#7d8aae; stroke:none;" d="M1290 97L1291 98L1290 97z"/>
<path style="fill:#a7afc8; stroke:none;" d="M26 98L27 99L26 98M133 98L134 99L133 98M253 98L254 99L253 98M25 100L26 101L25 100M147 100L148 101L147 100M375 100L376 101L375 100M1291 100L1292 101L1291 100M264 101L265 102L264 101z"/>
<path style="fill:#7d8aae; stroke:none;" d="M1291 101L1292 102L1291 101z"/>
<path style="fill:#a7afc8; stroke:none;" d="M148 102L149 103L148 102M376 102L377 103L376 102M136 103L137 104L136 103M250 103L251 104L250 103M263 103L264 104L263 103M22 105L23 106L22 105M137 105L138 106L137 105M150 105L151 106L150 105M249 105L250 106L249 105M378 105L379 106L378 105M1292 105L1292 108L1293 108L1292 105M21 107L22 108L21 107M151 107L152 108L151 107M379 107L380 108L379 107M260 108L261 109L260 108z"/>
<path style="fill:#7d8aae; stroke:none;" d="M1292 108L1292 158L1293 158C1293 143.951 1297.41 120.889 1292 108z"/>
<path style="fill:#a7afc8; stroke:none;" d="M152 109L153 110L152 109M140 110L141 111L140 110M246 110L247 111L246 110M259 110L260 111L259 110M18 112L19 113L18 112M141 112L142 113L141 112M154 112L155 113L154 112M245 112L246 113L245 112M382 112L383 113L382 112M17 114L18 115L17 114M155 114L156 115L155 114M383 114L384 115L383 114M256 115L257 116L256 115M15 117L16 118L15 117M144 117L145 118L144 117M242 117L243 118L242 117M255 117L256 118L255 117z"/>
<path style="fill:#7d8aae; stroke:none;" d="M1118 117L1119 118L1118 117z"/>
<path style="fill:#a7afc8; stroke:none;" d="M1118 173L1119 173L1119 118L1213 118C1206.56 115.299 1196.95 117 1190 117L1141 117C1136.33 117 1122.16 114.645 1119.03 118.603C1116.58 121.698 1118 129.269 1118 133L1118 173z"/>
<path style="fill:#7d8aae; stroke:none;" d="M1213.67 117.333L1214.33 117.667L1213.67 117.333z"/>
<path style="fill:#fffffe; stroke:none;" d="M1119 118L1119 173L1188 173C1196.32 173 1209.4 175.449 1217 171.682C1228.21 166.123 1224.44 142.414 1223.96 132C1223.76 127.559 1222.7 122.694 1218.81 120.009C1212.18 115.437 1198.73 118 1191 118L1119 118z"/>
<path style="fill:#a7afc8; stroke:none;" d="M1216 118L1217 119L1216 118M14 119L15 120L14 119M145 119L146 120L145 119M158 119L159 120L158 119M241 119L242 120L241 119M386 119L387 120L386 119M1218 119L1219 120L1218 119M159 121L160 122L159 121M387 121L388 122L387 121M252 122L253 123L252 122M1221 122L1222 123L1221 122z"/>
<path style="fill:#7d8aae; stroke:none;" d="M1222 123L1223 124L1222 123z"/>
<path style="fill:#a7afc8; stroke:none;" d="M11 124L12 125L11 124M148 124L149 125L148 124M238 124L239 125L238 124M251 124L252 125L251 124z"/>
<path style="fill:#7d8aae; stroke:none;" d="M1223 125L1224 126L1223 125z"/>
<path style="fill:#a7afc8; stroke:none;" d="M10 126L11 127L10 126M149 126L150 127L149 126M162 126L163 127L162 126M237 126L238 127L237 126M390 126L391 127L390 126M1223.33 126.667L1223.67 127.333L1223.33 126.667M163 128L164 129L163 128M391 128L392 129L391 128M151 129L152 130L151 129M248 129L249 130L248 129M7 131L8 132L7 131M152 131L153 132L152 131M234 131L235 132L234 131M247 131L248 132L247 131M393 131L394 132L393 131M6 133L7 134L6 133M153 133L154 134L153 133M166 133L167 134L166 133M233 133L234 134L233 133M394 133L395 134L394 133M167 135L168 136L167 135M155 136L156 137L155 136M244 136L245 137L244 136M3 138L4 139L3 138M156 138L157 139L156 138M230 138L231 139L230 138M243 138L244 139L243 138M397 138L398 139L397 138M2 140L3 141L2 140M170 140L171 141L170 140M229 140L230 141L229 140M398 140L399 141L398 140M1 142L2 143L1 142M399.333 142.667L399.667 143.333L399.333 142.667M159 143L160 144L159 143M240 143L241 144L240 143M0 145L1 146L0 145M160 145L161 146L160 145M239 145L240 146L239 145M161 148L162 149L161 148M239 148L240 149L239 148M0.333333 150.667L0.666667 151.333L0.333333 150.667M240 150L241 151L240 150M399 151L400 152L399 151M158 153L159 154L158 153M242 153L243 154L242 153M398 153L399 154L398 153M1 154L2 155L1 154M157 155L158 156L157 155M243 155L244 156L243 155M397 155L398 156L397 155M396 157L397 158L396 157M1292 158L1292 161L1293 161L1292 158M4 159L5 160L4 159M154 160L155 161L154 160M246 160L247 161L246 160M5 161L6 162L5 161M153 162L154 163L153 162M247 162L248 163L247 162M393 162L394 163L393 162M1223.33 163.667L1223.67 164.333L1223.33 163.667M392 164L393 165L392 164M151 165L152 166L151 165z"/>
<path style="fill:#7d8aae; stroke:none;" d="M1223 165L1224 166L1223 165M1291 165L1292 166L1291 165z"/>
<path style="fill:#a7afc8; stroke:none;" d="M8 166L9 167L8 166M1291.33 166.667L1291.67 167.333L1291.33 166.667M150 167L151 168L150 167M250 167L251 168L250 167z"/>
<path style="fill:#7d8aae; stroke:none;" d="M1222 167L1223 168L1222 167z"/>
<path style="fill:#a7afc8; stroke:none;" d="M9 168L10 169L9 168M1221 168L1222 169L1221 168M149 169L150 170L149 169M251 169L252 170L251 169M389 169L390 170L389 169M1220 169L1221 170L1220 169M1219 170L1220 171L1219 170z"/>
<path style="fill:#7d8aae; stroke:none;" d="M1290 170L1291 171L1290 170z"/>
<path style="fill:#a7afc8; stroke:none;" d="M388 171L389 172L388 171z"/>
<path style="fill:#7d8aae; stroke:none;" d="M1218 171L1219 172L1218 171z"/>
<path style="fill:#a7afc8; stroke:none;" d="M1290 171L1291 172L1290 171M147 172L148 173L147 172M1215 172L1216 173L1215 172z"/>
<path style="fill:#7d8aae; stroke:none;" d="M1216 172L1217 173L1216 172z"/>
<path style="fill:#a7afc8; stroke:none;" d="M12 173L13 174L12 173z"/>
<path style="fill:#7d8aae; stroke:none;" d="M1118 173L1118 174L1214 174L1185 173L1118 173z"/>
<path style="fill:#a7afc8; stroke:none;" d="M146 174L147 175L146 174M254 174L255 175L254 174M386 174L387 175L386 174z"/>
<path style="fill:#7d8aae; stroke:none;" d="M1289 174L1290 175L1289 174z"/>
<path style="fill:#a7afc8; stroke:none;" d="M13 175L14 176L13 175M255 176L256 177L255 176M385 176L386 177L385 176M1288 177L1289 178L1288 177M384 178L385 179L384 178M143 179L144 180L143 179M257 179L258 180L257 179z"/>
<path style="fill:#7d8aae; stroke:none;" d="M1287 179L1288 180L1287 179z"/>
<path style="fill:#a7afc8; stroke:none;" d="M16 180L17 181L16 180M142 181L143 182L142 181M258 181L259 182L258 181M382 181L383 182L382 181z"/>
<path style="fill:#7d8aae; stroke:none;" d="M1286 181L1287 182L1286 181z"/>
<path style="fill:#a7afc8; stroke:none;" d="M17 182L18 183L17 182M381 183L382 184L381 183z"/>
<path style="fill:#7d8aae; stroke:none;" d="M1285 183L1286 184L1285 183z"/>
<path style="fill:#a7afc8; stroke:none;" d="M19 185L20 186L19 185M1284 185L1285 186L1284 185M139 186L140 187L139 186M261 186L262 187L261 186z"/>
<path style="fill:#7d8aae; stroke:none;" d="M1283 186L1284 187L1283 186z"/>
<path style="fill:#a7afc8; stroke:none;" d="M20 187L21 188L20 187M138 188L139 189L138 188M262 188L263 189L262 188M378 188L379 189L378 188M1282 188L1283 189L1282 188M21 189L22 190L21 189M1281 189L1282 190L1281 189M377 190L378 191L377 190z"/>
<path style="fill:#7d8aae; stroke:none;" d="M1280 190L1281 191L1280 190z"/>
<path style="fill:#a7afc8; stroke:none;" d="M136 191L137 192L136 191z"/>
<path style="fill:#7d8aae; stroke:none;" d="M1279 191L1280 192L1279 191z"/>
<path style="fill:#a7afc8; stroke:none;" d="M23 192L24 193L23 192z"/>
<path style="fill:#7d8aae; stroke:none;" d="M1278 192L1279 193L1278 192z"/>
<path style="fill:#a7afc8; stroke:none;" d="M135 193L136 194L135 193M265 193L266 194L265 193M1277 193L1278 194L1277 193M24 194L25 195L24 194M1276 194L1277 195L1276 194M266 195L267 196L266 195M374 195L375 196L374 195z"/>
<path style="fill:#7d8aae; stroke:none;" d="M1274 195L1275 196L1274 195z"/>
<path style="fill:#a7afc8; stroke:none;" d="M1273 196L1274 197L1273 196M26 197L26 198L62 198C52.4404 193.989 36.387 197 26 197M268 197L268 198L373 198L341 197L268 197z"/>
<path style="fill:#7d8aae; stroke:none;" d="M1271 197L1272 198L1271 197M1269 198L1270 199L1269 198M1267 199L1268 200L1267 199M1264 200L1265 201L1264 200z"/>
<path style="fill:#a7afc8; stroke:none;" d="M1265 200L1266 201L1265 200z"/>
<path style="fill:#7d8aae; stroke:none;" d="M1262 201L1263 202L1262 201z"/>
<path style="fill:#a7afc8; stroke:none;" d="M1263 201L1264 202L1263 201z"/>
<path style="fill:#7d8aae; stroke:none;" d="M1265.67 202.333L1266.33 202.667L1265.67 202.333M1269 203L1270 204L1269 203M1271 204L1272 205L1271 204z"/>
<path style="fill:#a7afc8; stroke:none;" d="M1272 204L1273 205L1272 204M1274 205L1275 206L1274 205z"/>
<path style="fill:#7d8aae; stroke:none;" d="M1276 206L1277 207L1276 206z"/>
<path style="fill:#a7afc8; stroke:none;" d="M1278 207L1279 208L1278 207M267 209L267 210C288.368 204.913 315.031 209 337 209C331.293 206.605 323.154 208 317 208C301.659 208 281.703 204.654 267 209M1280 208L1281 209L1280 208z"/>
<path style="fill:#e9592f; stroke:none;" d="M27.6096 210.028C22.5606 213.422 19.4455 222.855 16.3966 228C11.3667 236.488 1.84438 247.936 1.1196 258C0.603519 265.166 5.3602 271.105 8.71914 277C15.3825 288.695 22.1498 300.327 28.8503 312C35.0908 322.872 41.6381 341.008 52.0154 348.347C61.6627 355.17 83.544 351 95 351C98.8545 351 105.089 352.166 108.471 349.972C117.605 344.047 124.889 323.459 130.281 314C137.719 300.953 145.373 288.026 152.85 275C155.412 270.537 160.94 264.315 161.083 259C161.314 250.452 149.286 236.317 144.989 229C141.864 223.679 138.21 213.222 132.787 210.028C128.555 207.534 120.756 209 116 209L75 209L41 209C37.2107 209 30.9062 207.812 27.6096 210.028z"/>
<path style="fill:#a7afc8; stroke:none;" d="M133 209L134 210L133 209z"/>
<path style="fill:#e9592f; stroke:none;" d="M268.21 210.028C264.557 212.162 262.596 217.481 260.579 221L245.579 247C243.665 250.338 239.79 254.956 240.117 259C241.001 269.929 254.414 285.478 259.85 295L282.85 335C285.143 339.018 288.009 347.345 292.39 349.397C300.318 353.109 316.256 350 325 350C332.411 350 342.367 351.74 348.985 347.772C359.243 341.621 365.553 323.117 371.424 313C378.578 300.675 385.785 288.376 392.85 276C395.92 270.621 400.744 264.489 400.641 258C400.488 248.331 391.073 237.113 386.421 229C383.3 223.555 379.858 213.507 374.471 210.028C370.337 207.357 361.754 209 357 209L313 209L282 209C277.938 209 271.852 207.9 268.21 210.028z"/>
<path style="fill:#7d8aae; stroke:none;" d="M1281 209L1282 210L1281 209z"/>
<path style="fill:#a7afc8; stroke:none;" d="M26 210L27 211L26 210M375 210L376 211L375 210M1284 211L1285 212L1284 211M25 212L26 213L25 212M265 212L266 213L265 212z"/>
<path style="fill:#7d8aae; stroke:none;" d="M1285 212L1286 213L1285 212z"/>
<path style="fill:#a7afc8; stroke:none;" d="M377 213L378 214L377 213z"/>
<path style="fill:#7d8aae; stroke:none;" d="M1286 213L1287 214L1286 213z"/>
<path style="fill:#a7afc8; stroke:none;" d="M136 214L137 215L136 214M264 214L265 215L264 214z"/>
<path style="fill:#7d8aae; stroke:none;" d="M1287 214L1288 215L1287 214z"/>
<path style="fill:#a7afc8; stroke:none;" d="M378 215L379 216L378 215z"/>
<path style="fill:#7d8aae; stroke:none;" d="M1288 215L1289 216L1288 215z"/>
<path style="fill:#a7afc8; stroke:none;" d="M137 216L138 217L137 216z"/>
<path style="fill:#7d8aae; stroke:none;" d="M1289 216L1290 217L1289 216z"/>
<path style="fill:#a7afc8; stroke:none;" d="M22 217L23 218L22 217z"/>
<path style="fill:#7d8aae; stroke:none;" d="M1290 217L1291 218L1290 217z"/>
<path style="fill:#a7afc8; stroke:none;" d="M1291 218L1292 219L1291 218M21 219L22 220L21 219M261 219L262 220L261 219M381 220L382 221L381 220M140 221L141 222L140 221M260 221L261 222L260 221z"/>
<path style="fill:#7d8aae; stroke:none;" d="M1293 221L1294 222L1293 221z"/>
<path style="fill:#a7afc8; stroke:none;" d="M382 222L383 223L382 222M1294 222L1295 223L1294 222M141 223L142 224L141 223M18 224L19 225L18 224M1295 224L1296 225L1295 224M17 226L18 227L17 226M143 226L144 227L143 226M257 226L258 227L257 226M1296 226L1297 227L1296 226M385 227L386 228L385 227M144 228L145 229L144 228M256 228L257 229L256 228z"/>
<path style="fill:#7d8aae; stroke:none;" d="M1118 228L1119 229L1118 228z"/>
<path style="fill:#a7afc8; stroke:none;" d="M1118 289L1119 289L1119 229L1222 229C1215.08 226.097 1204.48 228 1197 228L1143 228C1138.04 228 1122.32 225.446 1119.03 229.603C1116.34 233 1118 241.875 1118 246L1118 289z"/>
<path style="fill:#7d8aae; stroke:none;" d="M1222 228L1223 229L1222 228z"/>
<path style="fill:#a7afc8; stroke:none;" d="M1297 228L1298 229L1297 228M15 229L16 230L15 229M386 229L387 230L386 229z"/>
<path style="fill:#fffffe; stroke:none;" d="M1119 229L1119 289L1193 289C1202.8 289 1216.99 291.583 1225.96 287.08C1229.66 285.219 1231.49 282.058 1231.9 278C1233.01 266.887 1232.02 255.169 1232 244C1231.99 238.793 1231.77 233.913 1226.96 230.742C1220 226.156 1205.09 229 1197 229L1119 229z"/>
<path style="fill:#7d8aae; stroke:none;" d="M1225 229L1226 230L1225 229M1297 229L1298 230L1297 229M1227 230L1228 231L1227 230z"/>
<path style="fill:#a7afc8; stroke:none;" d="M14 231L15 232L14 231M1228 231L1229 232L1228 231z"/>
<path style="fill:#7d8aae; stroke:none;" d="M1298 231L1299 232L1298 231z"/>
<path style="fill:#a7afc8; stroke:none;" d="M1229 232L1230 233L1229 232M147 233L148 234L147 233M253 233L254 234L253 233M1230 233L1231 234L1230 233M389 234L390 235L389 234z"/>
<path style="fill:#7d8aae; stroke:none;" d="M1231 234L1232 235L1231 234z"/>
<path style="fill:#a7afc8; stroke:none;" d="M1299 234L1300 235L1299 234M148 235L149 236L148 235M252 235L253 236L252 235M1231 235L1232 236L1231 235z"/>
<path style="fill:#7d8aae; stroke:none;" d="M1299 235L1300 236L1299 235z"/>
<path style="fill:#a7afc8; stroke:none;" d="M11 236L12 237L11 236M390 236L391 237L390 236z"/>
<path style="fill:#7d8aae; stroke:none;" d="M1232 237L1233 238L1232 237z"/>
<path style="fill:#a7afc8; stroke:none;" d="M1300.33 237.667L1300.67 238.333L1300.33 237.667M10 238L11 239L10 238M250 238L251 239L250 238M1232 238L1232 279L1233 279C1233 267.304 1236.51 248.75 1232 238z"/>
<path style="fill:#7d8aae; stroke:none;" d="M1300.33 239.667L1300.67 240.333L1300.33 239.667z"/>
<path style="fill:#a7afc8; stroke:none;" d="M151 240L152 241L151 240M249 240L250 241L249 240M393 241L394 242L393 241M152 242L153 243L152 242M7 243L8 244L7 243M394 243L395 244L394 243M1301 244L1301 300L1302 300L1302 262L1301 244M6 245L7 246L6 245M154 245L155 246L154 245M246 245L247 246L246 245M396 246L397 247L396 246M155 247L156 248L155 247M245 247L246 248L245 247M397 248L398 249L397 248M3 250L4 251L3 250M398 250L399 251L398 250M2 252L3 253L2 252M158 252L159 253L158 252M242 252L243 253L242 252M399 252L400 253L399 252M1 254L2 255L1 254M159 254L160 255L159 254M241 254L242 255L241 254M400 255L401 256L400 255M239 257L240 258L239 257M239 259L240 260L239 259M400.333 260.667L400.667 261.333L400.333 260.667M160 261L161 262L160 261M241 262L242 263L241 262M1 263L2 264L1 263M159 263L160 264L159 263z"/>
<path style="fill:#e9592f; stroke:none;" d="M172.379 265.028C163.248 270.734 156.413 290.765 150.989 300C143.567 312.638 136.146 325.289 128.85 338C126.093 342.803 120.512 349.418 119.924 355C119.463 359.371 123.791 364.394 125.85 368C131.728 378.298 138.232 396.259 148.043 403.146C153.519 406.99 160.674 406 167 406L207 406C219.377 406 243.484 410.587 253.96 403.297C263.842 396.42 269.734 379.185 275.799 369C277.976 365.346 281.917 360.492 281.474 356C280.877 349.957 275.023 343.129 272.011 338C264.817 325.752 257.892 313.336 250.85 301C245.555 291.726 238.051 270.438 228.79 265.028C225.359 263.023 219.82 264 216 264L186 264C182.064 264 175.859 262.853 172.379 265.028z"/>
<path style="fill:#a7afc8; stroke:none;" d="M229 264L230 265L229 264M242 264L243 265L242 264M170 266L171 267L170 266M243 266L244 267L243 266M231 267L232 268L231 267M397 267L398 268L397 267M156 268L157 269L156 268M169 268L170 269L169 268M4 269L5 270L4 269M232 269L233 270L232 269M245 269L246 270L245 269M396 269L397 270L396 269M155 270L156 271L155 270M5 271L6 272L5 271M167 271L168 272L167 271M246 271L247 272L246 271M153 273L154 274L153 273M166 273L167 274L166 273M7 274L8 275L7 274M235 274L236 275L235 274M393 274L394 275L393 274M152 275L153 276L152 275M8 276L9 277L8 276M236 276L237 277L236 276M249 276L250 277L249 276M392 276L393 277L392 276M163 278L164 279L163 278M250 278L251 279L250 278z"/>
<path style="fill:#7d8aae; stroke:none;" d="M1232 279L1233 280L1232 279z"/>
<path style="fill:#a7afc8; stroke:none;" d="M149 280L150 281L149 280M162 280L163 281L162 280M11 281L12 282L11 281M239 281L240 282L239 281M389 281L390 282L389 281M1231 281L1232 282L1231 281M148 282L149 283L148 282z"/>
<path style="fill:#7d8aae; stroke:none;" d="M1231 282L1232 283L1231 282z"/>
<path style="fill:#a7afc8; stroke:none;" d="M12 283L13 284L12 283M240 283L241 284L240 283M253 283L254 284L253 283M388 283L389 284L388 283M1230 283L1231 284L1230 283M159 285L160 286L159 285M254 285L255 286L254 285M242 286L243 287L242 286M386 286L387 287L386 286z"/>
<path style="fill:#7d8aae; stroke:none;" d="M1004 286L1005 287L1004 286z"/>
<path style="fill:#a7afc8; stroke:none;" d="M1227 286L1228 287L1227 286M145 287L146 288L145 287M158 287L159 288L158 287M1006 287L1007 288L1006 287M1225 287L1226 288L1225 287z"/>
<path style="fill:#7d8aae; stroke:none;" d="M1226 287L1227 288L1226 287z"/>
<path style="fill:#a7afc8; stroke:none;" d="M15 288L16 289L15 288M243 288L244 289L243 288M385 288L386 289L385 288M1007 288L1008 289L1007 288M1222.67 288.333L1223.33 288.667L1222.67 288.333z"/>
<path style="fill:#7d8aae; stroke:none;" d="M1224 288L1225 289L1224 288z"/>
<path style="fill:#a7afc8; stroke:none;" d="M144 289L145 290L144 289M16 290L17 291L16 290M156 290L157 291L156 290M244 290L245 291L244 290M257 290L258 291L257 290z"/>
<path style="fill:#7d8aae; stroke:none;" d="M1008 290L1009 291L1008 290M574 291L574 292L693 292L657 291L574 291z"/>
<path style="fill:#a7afc8; stroke:none;" d="M809 291L809 294L810 294L809 291M142 292L143 293L142 292M155 292L156 293L155 292M258 292L259 293L258 292M246 293L247 294L246 293M382 293L383 294L382 293M141 294L142 295L141 294M19 295L20 296L19 295M247 295L248 296L247 295M381 295L382 296L381 295M504.333 296.667L504.667 297.333L504.333 296.667z"/>
<path style="fill:#7d8aae; stroke:none;" d="M763 296L763 299L764 299L763 296z"/>
<path style="fill:#a7afc8; stroke:none;" d="M20 297L21 298L20 297M152 297L153 298L152 297M261 297L262 298L261 297z"/>
<path style="fill:#7d8aae; stroke:none;" d="M810.333 297.667L810.667 298.333L810.333 297.667z"/>
<path style="fill:#a7afc8; stroke:none;" d="M138 299L139 300L138 299M151 299L152 300L151 299M262 299L263 300L262 299M763.333 299.667L763.667 300.333L763.333 299.667M810 299L811 300L810 299M22 300L23 301L22 300M250 300L251 301L250 300M378 300L379 301L378 300M137 301L138 302L137 301z"/>
<path style="fill:#7d8aae; stroke:none;" d="M505.333 301.667L505.667 302.333L505.333 301.667z"/>
<path style="fill:#a7afc8; stroke:none;" d="M23 302L24 303L23 302M149 302L150 303L149 302M251 302L252 303L251 302M377 302L378 303L377 302z"/>
<path style="fill:#7d8aae; stroke:none;" d="M811 302L812 303L811 302z"/>
<path style="fill:#a7afc8; stroke:none;" d="M505 303L506 304L505 303z"/>
<path style="fill:#7d8aae; stroke:none;" d="M762 303L763 304L762 303z"/>
<path style="fill:#a7afc8; stroke:none;" d="M811 303L812 304L811 303z"/>
<path style="fill:#7d8aae; stroke:none;" d="M1300.33 303.667L1300.67 304.333L1300.33 303.667z"/>
<path style="fill:#a7afc8; stroke:none;" d="M148 304L149 305L148 304M265 304L266 305L265 304M762.333 304.667L762.667 305.333L762.333 304.667M1300 305L1301 306L1300 305M134 306L135 307L134 306M266 306L267 307L266 306z"/>
<path style="fill:#7d8aae; stroke:none;" d="M506 306L507 307L506 306M812 306L813 307L812 306z"/>
<path style="fill:#a7afc8; stroke:none;" d="M26 307L27 308L26 307M254 307L255 308L254 307M374 307L375 308L374 307M506 307L507 308L506 307z"/>
<path style="fill:#7d8aae; stroke:none;" d="M761 307L762 308L761 307z"/>
<path style="fill:#a7afc8; stroke:none;" d="M812 307L813 308L812 307M761 308L762 309L761 308z"/>
<path style="fill:#7d8aae; stroke:none;" d="M1299 308L1300 309L1299 308z"/>
<path style="fill:#a7afc8; stroke:none;" d="M27 309L28 310L27 309M145 309L146 310L145 309M255 309L256 310L255 309M268 309L269 310L268 309M373 309L374 310L373 309z"/>
<path style="fill:#7d8aae; stroke:none;" d="M813 309L814 310L813 309z"/>
<path style="fill:#a7afc8; stroke:none;" d="M1299 309L1300 310L1299 309z"/>
<path style="fill:#7d8aae; stroke:none;" d="M507 310L508 311L507 310z"/>
<path style="fill:#a7afc8; stroke:none;" d="M131 311L132 312L131 311M144 311L145 312L144 311M269 311L270 312L269 311z"/>
<path style="fill:#7d8aae; stroke:none;" d="M760 311L761 312L760 311M814 311L815 312L814 311M1298 311L1299 312L1298 311z"/>
<path style="fill:#a7afc8; stroke:none;" d="M371 312L372 313L371 312M814 312L815 313L814 312M1298 312L1299 313L1298 312M130 313L131 314L130 313M270 313L271 314L270 313M508 313L509 314L508 313z"/>
<path style="fill:#7d8aae; stroke:none;" d="M759 313L760 314L759 313z"/>
<path style="fill:#a7afc8; stroke:none;" d="M30 314L31 315L30 314M258 314L259 315L258 314M370 314L371 315L370 314M759 314L760 315L759 314M815 314L816 315L815 314z"/>
<path style="fill:#7d8aae; stroke:none;" d="M1297 314L1298 315L1297 314M509 315L510 316L509 315z"/>
<path style="fill:#a7afc8; stroke:none;" d="M1297 315L1298 316L1297 315M31 316L32 317L31 316M141 316L142 317L141 316M259 316L260 317L259 316M272 316L273 317L272 316M509 316L510 317L509 316z"/>
<path style="fill:#7d8aae; stroke:none;" d="M758 316L759 317L758 316z"/>
<path style="fill:#a7afc8; stroke:none;" d="M816 316L817 317L816 316z"/>
<path style="fill:#7d8aae; stroke:none;" d="M510 317L511 318L510 317z"/>
<path style="fill:#a7afc8; stroke:none;" d="M1296 317L1297 318L1296 317M127 318L128 319L127 318M140 318L141 319L140 318M273 318L274 319L273 318M510 318L511 319L510 318z"/>
<path style="fill:#7d8aae; stroke:none;" d="M757 318L758 319L757 318z"/>
<path style="fill:#a7afc8; stroke:none;" d="M817 318L818 319L817 318M33 319L34 320L33 319M367 319L368 320L367 319M1295 319L1296 320L1295 319M126 320L127 321L126 320M511 320L512 321L511 320z"/>
<path style="fill:#7d8aae; stroke:none;" d="M756 320L757 321L756 320z"/>
<path style="fill:#a7afc8; stroke:none;" d="M818 320L819 321L818 320M34 321L35 322L34 321M138 321L139 322L138 321M262 321L263 322L262 321M366 321L367 322L366 321z"/>
<path style="fill:#7d8aae; stroke:none;" d="M512 321L513 322L512 321M819 321L820 322L819 321z"/>
<path style="fill:#a7afc8; stroke:none;" d="M1294 321L1295 322L1294 321M512 322L513 323L512 322z"/>
<path style="fill:#7d8aae; stroke:none;" d="M755 322L756 323L755 322M1293 322L1294 323L1293 322z"/>
<path style="fill:#a7afc8; stroke:none;" d="M35 323L36 324L35 323M124 323L125 324L124 323M137 323L138 324L137 323M263 323L264 324L263 323M276 323L277 324L276 323z"/>
<path style="fill:#7d8aae; stroke:none;" d="M513 323L514 324L513 323z"/>
<path style="fill:#a7afc8; stroke:none;" d="M820 323L821 324L820 323M754 324L755 325L754 324z"/>
<path style="fill:#7d8aae; stroke:none;" d="M821 324L822 325L821 324M1292 324L1293 325L1292 324z"/>
<path style="fill:#a7afc8; stroke:none;" d="M123 325L124 326L123 325M277 325L278 326L277 325M514 325L515 326L514 325z"/>
<path style="fill:#7d8aae; stroke:none;" d="M753 325L754 326L753 325z"/>
<path style="fill:#a7afc8; stroke:none;" d="M37 326L38 327L37 326M363 326L364 327L363 326z"/>
<path style="fill:#7d8aae; stroke:none;" d="M515 326L516 327L515 326z"/>
<path style="fill:#a7afc8; stroke:none;" d="M1291 326L1292 327L1291 326M752 327L753 328L752 327M823 327L824 328L823 327M1290 327L1291 328L1290 327M38 328L39 329L38 328M134 328L135 329L134 328M266 328L267 329L266 328M362 328L363 329L362 328M516 328L517 329L516 328z"/>
<path style="fill:#7d8aae; stroke:none;" d="M751 328L752 329L751 328M824 328L825 329L824 328M1289 328L1290 329L1289 328M517 329L518 330L517 329M825 329L826 330L825 329z"/>
<path style="fill:#a7afc8; stroke:none;" d="M120 330L121 331L120 330M133 330L134 331L133 330M267 330L268 331L267 330M280 330L281 331L280 330M750 330L751 331L750 330z"/>
<path style="fill:#7d8aae; stroke:none;" d="M826 330L827 331L826 330z"/>
<path style="fill:#a7afc8; stroke:none;" d="M749 331L750 332L749 331M1287 331L1288 332L1287 331M119 332L120 333L119 332M281 332L282 333L281 332M519 332L520 333L519 332z"/>
<path style="fill:#7d8aae; stroke:none;" d="M748 332L749 333L748 332z"/>
<path style="fill:#a7afc8; stroke:none;" d="M1286 332L1287 333L1286 332M41 333L42 334L41 333M131 333L132 334L131 333M269 333L270 334L269 333M359 333L360 334L359 333M520 333L521 334L520 333z"/>
<path style="fill:#7d8aae; stroke:none;" d="M747 333L748 334L747 333z"/>
<path style="fill:#a7afc8; stroke:none;" d="M1285 333L1286 334L1285 333M521 334L522 335L521 334z"/>
<path style="fill:#7d8aae; stroke:none;" d="M746 334L747 335L746 334M830 334L831 335L830 334z"/>
<path style="fill:#a7afc8; stroke:none;" d="M1284 334L1285 335L1284 334M42 335L43 336L42 335M130 335L131 336L130 335M270 335L271 336L270 335M358 335L359 336L358 335z"/>
<path style="fill:#7d8aae; stroke:none;" d="M522 335L523 336L522 335M745 335L746 336L745 335M831 335L832 336L831 335z"/>
<path style="fill:#a7afc8; stroke:none;" d="M1283 335L1284 336L1283 335z"/>
<path style="fill:#7d8aae; stroke:none;" d="M523 336L524 337L523 336M832 336L833 337L832 336z"/>
<path style="fill:#a7afc8; stroke:none;" d="M1282 336L1283 337L1282 336M116 337L117 338L116 337M271 337L272 338L271 337M284 337L285 338L284 337z"/>
<path style="fill:#7d8aae; stroke:none;" d="M524 337L525 338L524 337M743 337L744 338L743 337z"/>
<path style="fill:#a7afc8; stroke:none;" d="M833 337L834 338L833 337M356 338L357 339L356 338M525 338L526 339L525 338z"/>
<path style="fill:#7d8aae; stroke:none;" d="M742 338L743 339L742 338z"/>
<path style="fill:#a7afc8; stroke:none;" d="M834 338L835 339L834 338z"/>
<path style="fill:#7d8aae; stroke:none;" d="M1279 338L1280 339L1279 338z"/>
<path style="fill:#a7afc8; stroke:none;" d="M115 339L116 340L115 339M285 339L286 340L285 339M526 339L527 340L526 339z"/>
<path style="fill:#7d8aae; stroke:none;" d="M741 339L742 340L741 339M836 339L837 340L836 339z"/>
<path style="fill:#a7afc8; stroke:none;" d="M1278 339L1279 340L1278 339M45 340L46 341L45 340M127 340L128 341L127 340M273 340L274 341L273 340M355 340L356 341L355 340M527 340L528 341L527 340M740 340L741 341L740 340M837 340L838 341L837 340M1277 340L1278 341L1277 340z"/>
<path style="fill:#7d8aae; stroke:none;" d="M529 341L530 342L529 341z"/>
<path style="fill:#a7afc8; stroke:none;" d="M739 341L740 342L739 341z"/>
<path style="fill:#7d8aae; stroke:none;" d="M839 341L840 342L839 341M1275 341L1276 342L1275 341z"/>
<path style="fill:#a7afc8; stroke:none;" d="M46 342L47 343L46 342M113 342L114 343L113 342M126 342L127 343L126 342M274 342L275 343L274 342z"/>
<path style="fill:#7d8aae; stroke:none;" d="M530 342L531 343L530 342z"/>
<path style="fill:#a7afc8; stroke:none;" d="M840 342L841 343L840 342M1274 342L1275 343L1274 342M531 343L532 344L531 343z"/>
<path style="fill:#7d8aae; stroke:none;" d="M736 343L737 344L736 343M842 343L843 344L842 343z"/>
<path style="fill:#a7afc8; stroke:none;" d="M1272 343L1273 344L1272 343M112 344L113 345L112 344M288 344L289 345L288 344z"/>
<path style="fill:#7d8aae; stroke:none;" d="M533 344L534 345L533 344z"/>
<path style="fill:#a7afc8; stroke:none;" d="M735 344L736 345L735 344z"/>
<path style="fill:#7d8aae; stroke:none;" d="M844 344L845 345L844 344M1270 344L1271 345L1270 344z"/>
<path style="fill:#a7afc8; stroke:none;" d="M1417.33 344.667L1417.67 345.333L1417.33 344.667M48 345L49 346L48 345M534 345L535 346L534 345z"/>
<path style="fill:#7d8aae; stroke:none;" d="M733 345L734 346L733 345M846 345L847 346L846 345M1050.33 345.667L1050.67 346.333L1050.33 345.667M1268 345L1269 346L1268 345z"/>
<path style="fill:#a7afc8; stroke:none;" d="M49 346L50 347L49 346M289 346L290 347L289 346z"/>
<path style="fill:#7d8aae; stroke:none;" d="M536 346L537 347L536 346M731 346L732 347L731 346z"/>
<path style="fill:#a7afc8; stroke:none;" d="M732 346L733 347L732 346M848 346L849 347L848 346M1266 346L1267 347L1266 346M1347 346L1348 347L1347 346M50 347L51 348L50 347M123 347L124 348L123 347M277 347L278 348L277 347M349 347L350 348L349 347z"/>
<path style="fill:#7d8aae; stroke:none;" d="M538 347L539 348L538 347z"/>
<path style="fill:#a7afc8; stroke:none;" d="M730 347L731 348L730 347M850 347L851 348L850 347z"/>
<path style="fill:#7d8aae; stroke:none;" d="M851 347L852 348L851 347M1008 347L1009 348L1008 347M1263 347L1264 348L1263 347z"/>
<path style="fill:#a7afc8; stroke:none;" d="M1264 347L1265 348L1264 347z"/>
<path style="fill:#7d8aae; stroke:none;" d="M1416 347L1417 348L1416 347z"/>
<path style="fill:#a7afc8; stroke:none;" d="M539 348L540 349L539 348z"/>
<path style="fill:#7d8aae; stroke:none;" d="M540 348L541 349L540 348z"/>
<path style="fill:#a7afc8; stroke:none;" d="M728 348L729 349L728 348M853 348L854 349L853 348z"/>
<path style="fill:#7d8aae; stroke:none;" d="M854 348L855 349L854 348M1051 348L1052 349L1051 348M1260 348L1261 349L1260 348z"/>
<path style="fill:#a7afc8; stroke:none;" d="M1261 348L1262 349L1261 348M1348 348L1349 349L1348 348M53 349L54 350L53 349M109 349L110 350L109 349M122 349L123 350L122 349M278 349L279 350L278 349M345 349L346 350L345 349M541 349L542 350L541 349z"/>
<path style="fill:#7d8aae; stroke:none;" d="M542 349L543 350L542 349z"/>
<path style="fill:#a7afc8; stroke:none;" d="M726 349L727 350L726 349M856 349L857 350L856 349z"/>
<path style="fill:#7d8aae; stroke:none;" d="M857 349L858 350L857 349z"/>
<path style="fill:#a7afc8; stroke:none;" d="M1007 349L1008 350L1007 349z"/>
<path style="fill:#7d8aae; stroke:none;" d="M1052 349L1053 350L1052 349M1257 349L1258 350L1257 349z"/>
<path style="fill:#a7afc8; stroke:none;" d="M1258 349L1259 350L1258 349M1349 349L1350 350L1349 349M1415 349L1416 350L1415 349M55 350L56 351L55 350z"/>
<path style="fill:#7d8aae; stroke:none;" d="M544 350L545 351L544 350M723 350L724 351L723 350z"/>
<path style="fill:#a7afc8; stroke:none;" d="M724 350L725 351L724 350M860 350L861 351L860 350z"/>
<path style="fill:#7d8aae; stroke:none;" d="M861.667 350.333L862.333 350.667L861.667 350.333M1005 350L1006 351L1005 350z"/>
<path style="fill:#a7afc8; stroke:none;" d="M1053 350L1054 351L1053 350z"/>
<path style="fill:#7d8aae; stroke:none;" d="M1252.67 350.333L1253.33 350.667L1252.67 350.333z"/>
<path style="fill:#a7afc8; stroke:none;" d="M1254 350L1255 351L1254 350M1350 350L1351 351L1350 350M1414 350L1415 351L1414 350M546 351L547 352L546 351z"/>
<path style="fill:#7d8aae; stroke:none;" d="M547 351L548 352L547 351M721 351L722 352L721 351z"/>
<path style="fill:#a7afc8; stroke:none;" d="M865 351L865 352L868 352L865 351z"/>
<path style="fill:#7d8aae; stroke:none;" d="M868 351L868 352L872 352L868 351M1002.67 351.333L1003.33 351.667L1002.67 351.333z"/>
<path style="fill:#a7afc8; stroke:none;" d="M1004 351L1005 352L1004 351M1055 351L1056 352L1055 351z"/>
<path style="fill:#7d8aae; stroke:none;" d="M1056 351L1057 352L1056 351M1243 351L1243 352L1247 352L1243 351z"/>
<path style="fill:#a7afc8; stroke:none;" d="M1247 351L1247 352L1250 352L1247 351M1352 351L1353 352L1352 351z"/>
<path style="fill:#7d8aae; stroke:none;" d="M1353 351L1354 352L1353 351M1411 351L1412 352L1411 351z"/>
<path style="fill:#a7afc8; stroke:none;" d="M1412 351L1413 352L1412 351M120 352L121 353L120 352M549 352L550 353L549 352z"/>
<path style="fill:#7d8aae; stroke:none;" d="M550 352L551 353L550 352M718 352L719 353L718 352z"/>
<path style="fill:#a7afc8; stroke:none;" d="M719 352L720 353L719 352M552 353L553 354L552 353z"/>
<path style="fill:#7d8aae; stroke:none;" d="M553 353L554 354L553 353M714 353L715 354L714 353z"/>
<path style="fill:#a7afc8; stroke:none;" d="M715 353L716 354L715 353M119 354L120 355L119 354M281 354L282 355L281 354M556.667 354.333L557.333 354.667L556.667 354.333z"/>
<path style="fill:#7d8aae; stroke:none;" d="M558 354L559 355L558 354M709.667 354.333L710.333 354.667L709.667 354.333z"/>
<path style="fill:#a7afc8; stroke:none;" d="M711 354L712 355L711 354M562 355L562 356L566 356L562 355z"/>
<path style="fill:#7d8aae; stroke:none;" d="M566 355L566 356L702 356C691.258 351.492 672.682 355 661 355L566 355z"/>
<path style="fill:#a7afc8; stroke:none;" d="M702 355L702 356L706 356L702 355M282 356L283 357L282 356M120 358L121 359L120 358M121 360L122 361L121 360M280 360L281 361L280 360M279 362L280 363L279 362M123 363L124 364L123 363M124 365L125 366L124 365M276 367L277 368L276 367M275 369L276 370L275 369M127 370L128 371L127 370M128 372L129 373L128 372M273 372L274 373L273 372M272 374L273 375L272 374M131 377L132 378L131 377M132 379L133 380L132 379M269 379L270 380L269 379M268 381L269 382L268 381M134 382L135 383L134 382M135 384L136 385L135 384M265 386L266 387L265 386M138 389L139 390L138 389M139 391L140 392L139 391M262 391L263 392L262 391M261 393L262 394L261 393M141 394L142 395L141 394M142 396L143 397L142 396M258 398L259 399L258 398M256 401L257 402L256 401M148 403L149 404L148 403M252 404L253 405L252 404M152 405L153 406L152 405M249 405L250 406L249 405M639 505L640 505L640 457L647 457C639.061 453.705 639 461.195 639 467L639 505M1408 505L1409 505L1409 457L1416 457C1408.06 453.705 1408 461.195 1408 467L1408 505M104 457L104 465L105 465L104 457z"/>
<path style="fill:#e9592f; stroke:none;" d="M105 457L105 465L113 465L113 457L105 457z"/>
<path style="fill:#a7afc8; stroke:none;" d="M265 457L265 464L266 464L265 457z"/>
<path style="fill:#e9592f; stroke:none;" d="M266 457L266 465L274 465L274 457L266 457M539 457L539 465L547 465L547 457L539 457z"/>
<path style="fill:#a7afc8; stroke:none;" d="M547 457L547 465L548 465L547 457z"/>
<path style="fill:#e9592f; stroke:none;" d="M620 457L620 465C626.636 464.977 628.918 463.932 629 457L620 457M640 457L640 505L648 505L652 490L653 490C657.916 498.83 661.364 504.992 672 505L659.755 484.424L671 470C659.678 470.009 655.532 477.463 648 485L648 457L640 457z"/>
<path style="fill:#a7afc8; stroke:none;" d="M816 457L816 465L817 465L816 457z"/>
<path style="fill:#e9592f; stroke:none;" d="M817 457L817 465L825 465L825 457L817 457M912 457C912.116 466.815 920.884 466.815 921 457L912 457z"/>
<path style="fill:#a7afc8; stroke:none;" d="M1262 457L1263 458L1262 457z"/>
<path style="fill:#e9592f; stroke:none;" d="M1271 465L1271 457C1260.35 457.038 1260.35 464.962 1271 465M1409 457L1409 505L1417 505L1417 457L1409 457z"/>
<path style="fill:#a7afc8; stroke:none;" d="M11 490L12 490L12 459L19 459L19 487C21.5644 480.889 20.9711 468.628 19.8519 462.059C19.2921 458.773 15.5394 456.728 12.6034 459.029C7.76694 462.819 11 484.053 11 490M44 458L44 459L51 459L44 458M408 505L409 505L409 459L416 459C408.616 455.935 408.003 462.26 408 468L408 505M712 458L713 459L712 458z"/>
<path style="fill:#e9592f; stroke:none;" d="M707 480C695.663 484.405 693.895 499.544 706.001 504.517C714.252 507.906 718.438 502.566 725.984 501.876C728.864 501.612 730.411 504.044 732 506L739 502L739 501C732.406 494.252 734.367 491.774 738 484L732 481L728 489L719 481C721.267 480.229 723.105 479.456 724.896 477.772C741.957 461.73 702.934 447.111 704.048 471C704.205 474.368 705.514 477.043 707 480z"/>
<path style="fill:#a7afc8; stroke:none;" d="M721 458L722 459L721 458M768 505L769 505L769 459L790 459C786.202 457.406 771.893 455.986 769.028 459.603C766.825 462.385 768 468.672 768 472L768 505M988 458L988 459L996 459L988 458z"/>
<path style="fill:#e9592f; stroke:none;" d="M12 459C12 469.668 8.88844 486.234 13.5725 495.999C19.5443 508.449 40.6136 509.558 48.0054 497.985C54.3501 488.05 51 470.346 51 459L43 459C43 468.334 45.895 483.554 41.5432 491.985C37.2775 500.249 25.5486 500.082 21.1644 491.985C16.3886 483.164 19 468.709 19 459L12 459M409 459L409 505L441 505L441 498L417 498L417 459L409 459z"/>
<path style="fill:#a7afc8; stroke:none;" d="M709 459L710 460L709 459M723 459L724 460L723 459z"/>
<path style="fill:#e9592f; stroke:none;" d="M769 459L769 505C778.383 505 792.533 507.605 800.985 502.86C810.053 497.769 808.339 485.204 799 482C800.525 479.733 802.484 477.53 803.556 474.998C811.816 455.506 778.697 459 769 459z"/>
<path style="fill:#a7afc8; stroke:none;" d="M795 459L796 460L795 459z"/>
<path style="fill:#e9592f; stroke:none;" d="M988 459L988 505L996 505L996 459L988 459z"/>
<path style="fill:#a7afc8; stroke:none;" d="M287 460L287 461L295 461L287 460M593 470L594 470L594 461L602 461C594.194 457.733 593.005 463.643 593 470M798 460L799 461L798 460M1052 460L1052 461L1060 461L1052 460z"/>
<path style="fill:#e9592f; stroke:none;" d="M287 461L287 470L283 470L283 477L287 477C287 483.798 284.643 496.102 288.742 501.867C293.777 508.946 303.724 506.4 304 498C291.866 499.86 295 485.145 295 477L304 477L304 470L295 470L295 461L287 461M594 461L594 470L589 470L589 477L594 477C594 483.942 591.766 495.652 595.457 501.775C600 509.314 610.729 506.258 611 498C598.866 499.86 602 485.145 602 477L611 477L611 470L602 470L602 461L594 461M1052 461L1052 470L1048 470L1048 477L1052 477C1052 483.978 1049.74 495.858 1053.86 501.867C1058.78 509.05 1068.73 506.303 1069 498C1056.87 499.86 1060 485.145 1060 477L1069 477L1069 470L1060 470L1060 461L1052 461z"/>
<path style="fill:#a7afc8; stroke:none;" d="M628 464L629 465L628 464M704 464L705 465L704 464M715 464L715 465L719 465L715 464M912 464L913 465L912 464M920 464L921 465L920 464M1262 464L1263 465L1262 464z"/>
<path style="fill:#fffffe; stroke:none;" d="M714 477C715.724 476.317 717.384 475.759 718.796 474.487C728.165 466.043 708.431 460.44 711.971 472.955C712.382 474.409 713.274 475.702 714 477z"/>
<path style="fill:#a7afc8; stroke:none;" d="M728 465L729 466L728 465M803 465L804 466L803 465M776 466L776 478L777 478L776 466z"/>
<path style="fill:#fffffe; stroke:none;" d="M777 466L777 478C781.661 478 788.696 479.283 792.852 476.821C796.578 474.614 796.578 469.386 792.852 467.179C788.696 464.717 781.661 466 777 466z"/>
<path style="fill:#a7afc8; stroke:none;" d="M792 466L793 467L792 466M703 467L703 472L704 472L703 467M711 467L712 468L711 467M721 467L722 468L721 467M794 467L795 468L794 467M795 468L796 469L795 468M804.333 468.667L804.667 469.333L804.333 468.667M79 469L79 470L84 470L79 469M174 469L174 470L181 470L174 469M221 469L221 470L224 470L221 469M241 469L241 470L245 470L241 469M326.667 469.333L327.333 469.667L326.667 469.333M362 469L362 470L367 470L362 469M463 469L463 470L469 470L463 469M505 469L505 470L511 470L505 469M568 469L568 470L572 470L568 469M845 469L845 470L850 470L845 469M886 469L886 470L892 470L886 469M941 469L941 470L946 470L941 469M1024 469L1024 470L1030 470L1024 469M1089 469L1089 470L1096 470L1089 469M1136 469L1136 470L1139 470L1136 469M1163 469L1163 470L1168 470L1163 469M1202 469L1203 470L1202 469M1237 469L1237 470L1242 470L1237 469M1296 469L1296 470L1302 470L1296 469M1343 469L1343 470L1348 470L1343 469M1382 469L1383 470L1382 469z"/>
<path style="fill:#e9592f; stroke:none;" d="M62 470L62 505L70 505C70 498.217 68.168 488.211 71.3179 482.019C73.6102 477.513 79.5063 475.371 83.3472 479.434C88.5168 484.901 86 498.046 86 505L94 505C94 492.998 97.523 462.774 76.0046 470.738C73.61 471.624 71.8675 473.34 70 475L70 470L62 470M105 470L105 505L113 505L113 470L105 470M121 470C123.445 478.941 127.749 487.412 131.2 496C132.445 499.099 133.458 503.687 137.129 504.677C142.252 506.059 144.009 501.93 145.6 497.999C149.224 489.048 154.359 479.531 156 470L148 470L139 495C133.876 485.277 134.173 470.047 121 470z"/>
<path style="fill:#a7afc8; stroke:none;" d="M129 470L130 471L129 470M156 470L157 471L156 470M171 470L172 471L171 470z"/>
<path style="fill:#e9592f; stroke:none;" d="M192 498C181.564 494.27 176.036 503.53 168 491L194 490C193.981 483.214 193.088 476.247 186.907 472.148C177.631 465.997 162.962 471.913 161.214 483C160.123 489.914 161.219 497.864 167.094 502.351C174.137 507.73 188.976 507.825 192 498M203 470L203 505L211 505C211 494.003 209.644 479.48 224 478L224 470C218.201 470.14 214.778 471.774 212 477L211 477L211 470L203 470z"/>
<path style="fill:#a7afc8; stroke:none;" d="M237 470L238 471L237 470z"/>
<path style="fill:#e9592f; stroke:none;" d="M231 496C226.824 507.88 251.305 509.054 255.258 498.985C258.325 491.17 252.302 487.181 246 484.68C243.686 483.761 238.117 481.835 239.346 478.302C241.045 473.418 250.064 478.163 253 479L255 473C247.302 468.965 224.076 469.108 231.333 483.957C234.472 490.38 242.301 488.95 246.623 493.506C252.023 499.198 241.054 499.308 238.002 498.138C235.624 497.227 233.506 496.445 231 496z"/>
<path style="fill:#a7afc8; stroke:none;" d="M249 470L250 471L249 470z"/>
<path style="fill:#e9592f; stroke:none;" d="M266 470L266 505L274 505L274 470L266 470z"/>
<path style="fill:#a7afc8; stroke:none;" d="M282 470L282 477L283 477L282 470M304 470L304 477L305 477L304 470M319 470L320 471L319 470z"/>
<path style="fill:#e9592f; stroke:none;" d="M314 472L316 479C323.622 476.584 332.984 475.098 335 485C330.714 484.204 326.365 483.633 322 484.185C313.409 485.272 306.622 495.596 314.228 502.581C320.53 508.368 329.172 505.7 335 501L335 505L343 505C343 489.556 346.085 469.498 325 470.015C321.184 470.108 317.69 471.157 314 472z"/>
<path style="fill:#a7afc8; stroke:none;" d="M333 470L334 471L333 470M358 470L359 471L358 470z"/>
<path style="fill:#e9592f; stroke:none;" d="M353 496L351 502C356.763 504.352 362.629 507.008 369 505.467C375.625 503.864 380.604 496.455 376.258 490.105C373.729 486.411 359.845 483.694 360.631 479.093C361.766 472.455 373.985 481.501 377 473C369.019 469.926 344.389 468.921 353.457 484.815C356.812 490.696 364.381 489.164 368.573 493.644C376.148 501.738 354.859 496.53 353 496z"/>
<path style="fill:#a7afc8; stroke:none;" d="M370 470L371 471L370 470M459 470L460 471L459 470z"/>
<path style="fill:#e9592f; stroke:none;" d="M460 470.533C437.484 476.006 447.689 510.62 470 505.471C494.202 499.886 484.238 464.642 460 470.533z"/>
<path style="fill:#a7afc8; stroke:none;" d="M472 470L473 471L472 470M501 470L502 471L501 470z"/>
<path style="fill:#e9592f; stroke:none;" d="M520 497C519.224 511.927 506.447 510.024 496 506L494 512C497.219 513.805 500.334 514.97 504 515.56C533.087 520.242 528 489.166 528 470L520 470L520 475C517.533 472.98 515.187 471.12 512 470.394C486.695 464.633 485.519 506.095 511 501.775C514.528 501.177 517.225 499.108 520 497z"/>
<path style="fill:#a7afc8; stroke:none;" d="M513 470L514 471L513 470z"/>
<path style="fill:#e9592f; stroke:none;" d="M539 470L539 505L547 505L547 470L539 470z"/>
<path style="fill:#a7afc8; stroke:none;" d="M564 470L565 471L564 470z"/>
<path style="fill:#e9592f; stroke:none;" d="M556 501C564.497 506.34 587.466 509.178 582.566 492.04C580.487 484.768 571.713 486.319 567.377 481.596C562.654 476.453 572.039 476.167 574.975 477.091C576.677 477.627 578.337 478.359 580 479C584.468 467.684 564.658 467.514 559.742 474.214C554.07 481.945 561.263 488.164 568 490.66C570.393 491.546 575.819 493.17 574.654 496.789C572.281 504.164 560.525 493.014 556 501z"/>
<path style="fill:#a7afc8; stroke:none;" d="M576 470L577 471L576 470M620 470L620 505L621 505L620 470z"/>
<path style="fill:#e9592f; stroke:none;" d="M621 470L621 505L628 505L628 470L621 470z"/>
<path style="fill:#a7afc8; stroke:none;" d="M628 470L628 505L629 505L628 470M671 470L672 471L671 470z"/>
<path style="fill:#e9592f; stroke:none;" d="M817 470L817 505L825 505L825 470L817 470z"/>
<path style="fill:#a7afc8; stroke:none;" d="M841 470L842 471L841 470z"/>
<path style="fill:#e9592f; stroke:none;" d="M836 496L833 501C840.773 505.515 869.035 508.581 859.82 491.043C857.474 486.578 842.836 483.746 843.631 479.093C844.766 472.455 856.985 481.501 860 473C852.019 469.926 827.389 468.921 836.457 484.815C839.812 490.696 847.381 489.164 851.573 493.644C859.148 501.738 837.859 496.53 836 496z"/>
<path style="fill:#a7afc8; stroke:none;" d="M853 470L854 471L853 470z"/>
<path style="fill:#e9592f; stroke:none;" d="M870 470L870 505L878 505C878 498.38 876.048 488.01 879.179 482.019C882.314 476.021 889.604 475.969 892.682 482.019C895.832 488.211 894 498.217 894 505L902 505C902 493.313 905.022 462.961 884.005 470.738C881.61 471.624 879.867 473.34 878 475L878 470L870 470z"/>
<path style="fill:#a7afc8; stroke:none;" d="M883 470L884 471L883 470M894 470L895 471L894 470M912 470L912 505L913 505L912 470z"/>
<path style="fill:#e9592f; stroke:none;" d="M913 470L913 505L920 505L920 470L913 470z"/>
<path style="fill:#a7afc8; stroke:none;" d="M920 470L920 505L921 505L920 470M937 470L938 471L937 470z"/>
<path style="fill:#e9592f; stroke:none;" d="M929 501C936.766 505.511 962.498 509.461 956.092 492.015C953.389 484.655 944.681 486.795 940.466 481.586C934.546 474.269 950.828 478.164 953 479L956 473C947.863 469.866 921.123 469.918 932.742 485.786C935.384 489.394 948.976 491.04 948.23 495.995C947.09 503.569 933.128 493.714 929 501z"/>
<path style="fill:#a7afc8; stroke:none;" d="M949 470L950 471L949 470z"/>
<path style="fill:#e9592f; stroke:none;" d="M1008 470L1008 505L1016 505C1016 498.217 1014.17 488.211 1017.32 482.019C1019.61 477.513 1025.51 475.372 1029.35 479.434C1034.52 484.901 1032 498.046 1032 505L1040 505C1040 492.998 1043.52 462.774 1022 470.738C1019.61 471.624 1017.87 473.34 1016 475L1016 470L1008 470z"/>
<path style="fill:#a7afc8; stroke:none;" d="M1047 470L1047 477L1048 477L1047 470M1069 470L1069 477L1070 477L1069 470M1086 470L1087 471L1086 470z"/>
<path style="fill:#e9592f; stroke:none;" d="M1107 498C1096.56 494.27 1091.04 503.53 1083 491L1109 490C1108.98 483.637 1108.32 477.027 1102.81 472.854C1093.58 465.86 1078.05 471.364 1076.21 483C1075.12 489.914 1076.22 497.864 1082.09 502.351C1089.14 507.73 1103.98 507.825 1107 498z"/>
<path style="fill:#a7afc8; stroke:none;" d="M1098 470L1099 471L1098 470z"/>
<path style="fill:#e9592f; stroke:none;" d="M1118 470L1118 505L1126 505C1126 494.003 1124.64 479.48 1139 478L1139 470C1133.2 470.14 1129.78 471.774 1127 477L1126 477L1126 470L1118 470z"/>
<path style="fill:#a7afc8; stroke:none;" d="M1146 470L1147 471L1146 470z"/>
<path style="fill:#e9592f; stroke:none;" d="M1146 505L1154 505C1154 498.217 1152.17 488.211 1155.32 482.019C1157.83 477.088 1164.55 475.296 1168.14 480.228C1172.33 485.981 1170 498.209 1170 505L1178 505C1178 493.179 1181.54 462.383 1160 470.853C1157.68 471.768 1155.88 473.418 1154 475L1154 470C1140.82 470.156 1146 495.039 1146 505z"/>
<path style="fill:#a7afc8; stroke:none;" d="M1154 470L1154 475L1155 475L1154 470M1171 470L1172 471L1171 470M1194.67 470.333L1195.33 470.667L1194.67 470.333z"/>
<path style="fill:#e9592f; stroke:none;" d="M1191 479C1198.62 476.584 1207.98 475.098 1210 485C1205.71 484.204 1201.36 483.633 1197 484.185C1188.32 485.283 1181.8 495.499 1189.28 502.581C1195.48 508.449 1204.25 505.64 1210 501L1210 505L1218 505C1218 495.919 1220.82 480.442 1213.61 473.419C1207.21 467.193 1188.99 467.558 1191 479z"/>
<path style="fill:#a7afc8; stroke:none;" d="M1208 470L1209 471L1208 470z"/>
<path style="fill:#e9592f; stroke:none;" d="M1228 496C1223.73 508.139 1248.34 509.072 1252.26 498.985C1255.32 491.112 1248.18 486.732 1242 484.316C1239.86 483.477 1234.3 481.618 1236.04 478.275C1238.5 473.524 1246.59 478.028 1250 479L1252 473C1244.52 470.119 1220.24 468.326 1228.18 483.981C1231.44 490.407 1239.16 489.049 1243.62 493.644C1248.8 498.974 1237.96 499.448 1235 498.402C1232.61 497.556 1230.48 496.561 1228 496z"/>
<path style="fill:#a7afc8; stroke:none;" d="M1245.67 470.333L1246.33 470.667L1245.67 470.333M1262 470L1262 505L1263 505L1262 470z"/>
<path style="fill:#e9592f; stroke:none;" d="M1263 470L1263 505L1271 505L1271 470L1263 470z"/>
<path style="fill:#a7afc8; stroke:none;" d="M1292 470L1293 471L1292 470z"/>
<path style="fill:#e9592f; stroke:none;" d="M1293 470.533C1270.42 476.021 1280.64 510.63 1303 505.471C1327.19 499.889 1317.16 464.66 1293 470.533z"/>
<path style="fill:#a7afc8; stroke:none;" d="M1305 470L1306 471L1305 470M1326 470L1327 471L1326 470z"/>
<path style="fill:#e9592f; stroke:none;" d="M1326 505L1334 505C1334 498.217 1332.17 488.211 1335.32 482.019C1337.61 477.513 1343.51 475.372 1347.35 479.434C1352.52 484.901 1350 498.046 1350 505L1358 505C1358 493.179 1361.54 462.383 1340 470.853C1337.68 471.768 1335.88 473.418 1334 475L1334 470C1320.82 470.156 1326 495.039 1326 505z"/>
<path style="fill:#a7afc8; stroke:none;" d="M1334 470L1334 475L1335 475L1334 470M1374.67 470.333L1375.33 470.667L1374.67 470.333z"/>
<path style="fill:#e9592f; stroke:none;" d="M1371 479C1378.62 476.584 1387.98 475.098 1390 485C1385.71 484.204 1381.36 483.633 1377 484.185C1368.32 485.283 1361.8 495.499 1369.28 502.581C1375.48 508.449 1384.25 505.64 1390 501L1390 505L1398 505C1398 495.919 1400.82 480.442 1393.61 473.419C1387.21 467.192 1368.99 467.558 1371 479z"/>
<path style="fill:#a7afc8; stroke:none;" d="M1388 470L1389 471L1388 470M70 471L70 475L71 475L70 471M104 471L104 505L105 505L104 471M169 471L170 472L169 471M316 471L317 472L316 471M373 471L374 472L373 471M474 471L475 472L474 471M499 471L500 472L499 471M515 471L516 472L515 471M547 471L547 505L548 505L547 471M562 471L563 472L562 471M721 471L722 472L721 471M796.333 471.667L796.667 472.333L796.333 471.667M816 471L816 505L817 505L816 471M856 471L857 472L856 471M896 471L897 472L896 471M935 471L936 472L935 471M952 471L953 472L952 471M1084 471L1085 472L1084 471M1158 471L1159 472L1158 471M1191 471L1192 472L1191 471M1211 471L1212 472L1211 471M1248 471L1249 472L1248 471M1307 471L1308 472L1307 471M1338 471L1339 472L1338 471M1371 471L1372 472L1371 471M121 472L122 473L121 472M147 472L148 473L147 472M187 472L188 473L187 472M337 472L338 473L337 472M355 472L356 473L355 472M375 472L376 473L375 472M476 472L477 473L476 472M711 472L712 473L711 472M804.333 472.667L804.667 473.333L804.333 472.667M838 472L839 473L838 472M858 472L859 473L858 472M954 472L955 473L954 472M1082 472L1083 473L1082 472M1102 472L1103 473L1102 472M1189.33 472.667L1189.67 473.333L1189.33 472.667M1230 472L1231 473L1230 472M1250 472L1251 473L1250 472M1309 472L1310 473L1309 472M1369.33 472.667L1369.67 473.333L1369.33 472.667M130 473L131 474L130 473M155 473L156 474L155 473M166 473L167 474L166 473M255 473L256 474L255 473M354 473L355 474L354 473M582 473L583 474L582 473M720 473L721 474L720 473M728 473L729 474L728 473M837 473L838 474L837 473M1081 473L1082 474L1081 473M1229 473L1230 474L1229 473M122 474L123 475L122 474M165 474L166 475L165 474M314 474L315 475L314 474M353 474L354 475L353 474M712 474L713 475L712 474M719 474L720 475L719 474M836 474L837 475L836 474M899 474L900 475L899 474M955 474L956 475L955 474M1016 474L1017 475L1016 474M1080 474L1081 475L1080 474M1285 474L1286 475L1285 474M154 475L155 476L154 475M164 475L165 476L164 475M190 475L191 476L190 475M212 475L213 476L212 475M231 475L232 476L231 475M254 475L255 476L254 475M340 475L341 476L340 475M558 475L559 476L558 475M727 475L728 476L727 475M795 475L796 476L795 475M1079 475L1080 476L1079 475M1105 475L1106 476L1105 475M1127 475L1128 476L1127 475M1176 475L1177 476L1176 475M1215 475L1216 476L1215 475M1251 475L1252 476L1251 475M1356 475L1357 476L1356 475M1395 475L1396 476L1395 475M174 476L175 477L174 476z"/>
<path style="fill:#fffffe; stroke:none;" d="M169 485L186 485C183.778 474.021 171.222 474.021 169 485z"/>
<path style="fill:#a7afc8; stroke:none;" d="M180 476L181 477L180 476M211 476L212 477L211 476M239 476L240 477L239 476M246 476L247 477L246 476M352 476L353 477L352 476M361 476L362 477L361 476M367 476L368 477L367 476M464 476L464 477L468 477L464 476M507.667 476.333L508.333 476.667L507.667 476.333z"/>
<path style="fill:#fffffe; stroke:none;" d="M509 476.643C496.155 477.671 498.287 496.092 511 494.887C523.673 493.685 521.233 475.663 509 476.643z"/>
<path style="fill:#a7afc8; stroke:none;" d="M511.667 476.333L512.333 476.667L511.667 476.333M573 476L574 477L573 476M656 476L657 477L656 476M715 476L716 477L715 476M726 476L727 477L726 476M794 476L795 477L794 476M835 476L836 477L835 476M844 476L845 477L844 476M850 476L851 477L850 476M900 476L901 477L900 476M946 476L947 477L946 476M954 476L955 477L954 476M1089 476L1090 477L1089 476z"/>
<path style="fill:#fffffe; stroke:none;" d="M1084 485L1101 485C1098.78 474.021 1086.22 474.021 1084 485z"/>
<path style="fill:#a7afc8; stroke:none;" d="M1095 476L1096 477L1095 476M1126 476L1127 477L1126 476M1190 476L1191 477L1190 476M1236 476L1237 477L1236 476M1242.67 476.333L1243.33 476.667L1242.67 476.333M1297 476L1297 477L1301 477L1297 476M1370 476L1371 477L1370 476M74 477L75 478L74 477M123 477L124 478L123 477M145 477L146 478L145 477M172 477L173 478L172 477M182 477L183 478L182 477M230.333 477.667L230.667 478.333L230.333 477.667M238 477L239 478L238 477M253 477L254 478L253 477M315 477L316 478L315 477M320 477L321 478L320 477M330 477L331 478L330 477M341 477L342 478L341 477M370 477L371 478L370 477z"/>
<path style="fill:#fffffe; stroke:none;" d="M461.094 477.858C449.078 483.173 457.562 503.247 469.957 497.99C482.3 492.755 474.319 472.008 461.094 477.858z"/>
<path style="fill:#a7afc8; stroke:none;" d="M470 477L471 478L470 477M481 477L482 478L481 477M504 477L505 478L504 477M565 477L566 478L565 477M576 477L577 478L576 477M580 477L581 478L580 477M593 477L593 497L594 497L593 477M655 477L656 478L655 477M725 477L726 478L725 477M792 477L793 478L792 477M802 477L803 478L802 477M853 477L854 478L853 477M882 477L883 478L882 477M889 477L890 478L889 477M949 477L950 478L949 477M1020 477L1021 478L1020 477M1087 477L1088 478L1087 477M1097 477L1098 478L1097 477M1158 477L1159 478L1158 477M1195 477L1196 478L1195 477M1216 477L1217 478L1216 477M1227 477L1228 478L1227 477M1245 477L1246 478L1245 477z"/>
<path style="fill:#fffffe; stroke:none;" d="M1294.09 477.858C1282.08 483.173 1290.56 503.247 1302.96 497.99C1315.3 492.755 1307.32 472.008 1294.09 477.858z"/>
<path style="fill:#a7afc8; stroke:none;" d="M1303 477L1304 478L1303 477M1314 477L1315 478L1314 477M1338 477L1339 478L1338 477M1375 477L1376 478L1375 477M1396 477L1397 478L1396 477M83 478L84 479L83 478M93.3333 478.667L93.6667 479.333L93.3333 478.667M132 478L133 479L132 478M153 478L154 479L153 478M162 478L163 479L162 478M171 478L172 479L171 478M183 478L184 479L183 478M192 478L193 479L192 478M219 478L220 479L219 478M317 478L318 479L317 478M332 478L333 479L332 478M359 478L360 479L359 478M372 478L373 479L372 478M374 478L375 479L374 478M449 478L450 479L449 478M459 478L460 479L459 478M516 478L517 479L516 478M557 478L557 483L558 483L557 478M578 478L579 479L578 478M654 478L655 479L654 478M706 478L707 479L706 478M724 478L725 479L724 478M801 478L802 479L801 478M842 478L843 479L842 478M855 478L856 479L855 478M857 478L858 479L857 478M951 478L952 479L951 478M1029 478L1030 479L1029 478M1039.33 478.667L1039.67 479.333L1039.33 478.667M1077 478L1078 479L1077 478M1086 478L1087 479L1086 478M1098 478L1099 479L1098 478M1134 478L1135 479L1134 478M1167 478L1168 479L1167 478M1177 478L1178 479L1177 478M1192 478L1193 479L1192 478M1207 478L1208 479L1207 478M1234.33 478.667L1234.67 479.333L1234.33 478.667M1282 478L1283 479L1282 478M1292 478L1293 479L1292 478M1347 478L1348 479L1347 478M1357 478L1358 479L1357 478M1372 478L1373 479L1372 478M1387 478L1388 479L1387 478M124 479L125 480L124 479M170 479L171 480L170 479M184 479L185 480L184 479M333 479L334 480L333 479M517 479L518 480L517 479M653 479L654 480L653 479M800 479L801 480L800 479M901 479L901 483L902 483L901 479M930.333 479.667L930.667 480.333L930.333 479.667M1085 479L1086 480L1085 479M1099 479L1100 480L1099 479M1168 479L1169 480L1168 479M1208 479L1209 480L1208 479M1315 479L1316 480L1315 479M1388 479L1389 480L1388 479M71 480L72 481L71 480M144 480L145 481L144 480M152 480L153 481L152 480M215 480L216 481L215 480M342 480L342 483L343 483L342 480M359 480L360 481L359 480M448 480L449 481L448 480M457 480L458 481L457 480M492 480L493 481L492 480M518 480L519 481L518 480M652 480L653 481L652 480M842 480L843 481L842 480M892 480L893 481L892 480M1017 480L1018 481L1017 480M1076 480L1077 481L1076 480M1130 480L1131 481L1130 480M1155 480L1156 481L1155 480M1217.33 480.667L1217.67 481.333L1217.33 480.667M1281 480L1282 481L1281 480M1290 480L1291 481L1290 480M1335 480L1336 481L1335 480M1397.33 480.667L1397.67 481.333L1397.33 480.667M133 481L134 482L133 481M169 481L170 482L169 481M185 481L186 482L185 481M193 481L194 482L193 481M214 481L215 482L214 481M334 481L335 482L334 481M360 481L361 482L360 481M483 481L484 482L483 481M703 481L704 482L703 481M731 481L732 482L731 481M799 481L800 482L799 481M1084 481L1085 482L1084 481M1100 481L1101 482L1100 481M1108 481L1109 482L1108 481M1129 481L1130 482L1129 481M1209 481L1210 482L1209 481M1235 481L1236 482L1235 481M1316 481L1317 482L1316 481M1389 481L1390 482L1389 481M85 482L86 483L85 482M230 482L231 483L230 482M361 482L362 483L361 482M519 482L520 483L519 482M567 482L568 483L567 482M735 482L736 483L735 482M801 482L802 483L801 482M844 482L845 483L844 482M878 482L879 483L878 482M940 482L941 483L940 482M1031.33 482.667L1031.67 483.333L1031.33 482.667M1169 482L1170 483L1169 482M1349 482L1350 483L1349 482M70 483L70 505L71 505L70 483M143 483L144 484L143 483M151 483L152 484L151 483M242 483L243 484L242 483M352 483L353 484L352 483M364 483L365 484L364 483M447 483L448 484L447 483M569 483L570 484L569 483M730 483L731 484L730 483M737 483L738 484L737 483M835 483L836 484L835 483M847 483L848 484L847 483M893 483L893 505L894 505L893 483M942 483L943 484L942 483M1016.33 483.667L1016.67 484.333L1016.33 483.667M1154 483L1154 505L1155 505L1154 483M1227 483L1228 484L1227 483M1239 483L1240 484L1239 483M1280 483L1281 484L1280 483M1334 483L1334 505L1335 505L1334 483M126 484L127 485L126 484M134 484L135 485L134 484M160 484L160 491L161 491L160 484M168 484L169 485L168 484M245 484L246 485L245 484M319 484L320 485L319 484M332 484L333 485L332 484M367 484L368 485L367 484M455 484L456 485L455 484M572 484L573 485L572 484M658 484L659 485L658 484M850 484L851 485L850 484M931 484L932 485L931 484M945 484L946 485L945 484M1075 484L1075 491L1076 491L1075 484M1083 484L1084 485L1083 484M1194 484L1195 485L1194 484M1207 484L1208 485L1207 484M1242 484L1243 485L1242 484M1288 484L1289 485L1288 484M1374 484L1375 485L1374 484M1387 484L1388 485L1387 484M142 485L143 486L142 485M150 485L151 486L150 485M248 485L249 486L248 485M316 485L317 486L316 485M353 485L354 486L353 485M484 485L484 491L485 491L484 485M491.333 485.667L491.667 486.333L491.333 485.667M575 485L576 486L575 485z"/>
<path style="fill:#fffffe; stroke:none;" d="M722 496C720.531 493.89 718.99 491.935 717.267 490.015C706.615 478.14 701.433 500.578 714.998 498.761C717.531 498.422 719.755 497.128 722 496z"/>
<path style="fill:#a7afc8; stroke:none;" d="M729 485L730 486L729 485M776 485L776 498L777 498L776 485z"/>
<path style="fill:#fffffe; stroke:none;" d="M777 485L777 498C782.565 498 793.125 499.989 797.257 495.347C806.532 484.929 781.301 485 777 485z"/>
<path style="fill:#a7afc8; stroke:none;" d="M791.667 485.333L792.333 485.667L791.667 485.333M836 485L837 486L836 485M948 485L949 486L948 485M1191 485L1192 486L1191 485M1228 485L1229 486L1228 485M1245 485L1246 486L1245 485M1317 485L1317 490L1318 490L1317 485M1371 485L1372 486L1371 485M194 486L194 490L195 490L194 486M232 486L233 487L232 486M250 486L251 487L250 486M372 486L373 487L372 486M476 486L476 490L477 490L476 486M659 486L660 487L659 486M708 486L709 487L708 486M855 486L856 487L855 486M1109 486L1109 490L1110 490L1109 486M1229 486L1230 487L1229 486M1247 486L1248 487L1247 486M1309 486L1309 489L1310 489L1309 486M252 487L253 488L252 487M355 487L356 488L355 487M579 487L580 488L579 487M707 487L708 488L707 487M797 487L798 488L797 487M806 487L807 488L806 487M838 487L839 488L838 487M1230 487L1231 488L1230 487M141 488L142 489L141 488M149 488L150 489L149 488M211 488L211 491L212 491L211 488M235 488L236 489L235 488M375 488L376 489L375 488M562 488L563 489L562 488M727 488L728 489L727 488M735 488L736 489L735 488M858 488L859 489L858 488M935 488L936 489L935 488M1126.33 488.667L1126.67 489.333L1126.33 488.667M1250 488L1251 489L1250 488M128 489L129 490L128 489M136 489L137 490L136 489M237 489L238 490L237 489M322 489L323 490L322 489z"/>
<path style="fill:#fffffe; stroke:none;" d="M335 490C332.68 489.569 330.368 489.084 327.998 489.055C310.64 488.838 326.188 508.359 333.821 495.791C334.901 494.013 334.89 491.998 335 490z"/>
<path style="fill:#a7afc8; stroke:none;" d="M332 489L333 490L332 489M500 489L501 490L500 489M519 489L520 490L519 489M564 489L565 490L564 489M697.333 489.667L697.667 490.333L697.333 489.667M716 489L717 490L716 489M937 489L938 490L937 489M1197 489L1198 490L1197 489z"/>
<path style="fill:#fffffe; stroke:none;" d="M1210 490C1207.68 489.569 1205.37 489.084 1203 489.055C1185.68 488.838 1201.41 508.472 1208.82 495.871C1209.89 494.058 1209.89 492.025 1210 490z"/>
<path style="fill:#a7afc8; stroke:none;" d="M1207 489L1208 490L1207 489M1234 489L1235 490L1234 489M1251 489L1252 490L1251 489M1377 489L1378 490L1377 489z"/>
<path style="fill:#fffffe; stroke:none;" d="M1390 490C1387.68 489.569 1385.37 489.084 1383 489.055C1365.68 488.838 1381.41 508.472 1388.82 495.871C1389.89 494.058 1389.89 492.024 1390 490z"/>
<path style="fill:#a7afc8; stroke:none;" d="M1387 489L1388 490L1387 489M42 490L43 491L42 490M148 490L149 491L148 490M169 490L169 491L194 491L169 490M240 490L241 491L240 490M255 490L256 491L255 490M362 490L363 491L362 490M455 490L456 491L455 490M567 490L568 491L567 490M582 490L583 491L582 490M652 490L653 491L652 490M662 490L663 491L662 490M717 490L718 491L717 490M734 490L735 491L734 490M845 490L846 491L845 490M940 490L941 491L940 490M1084 490L1084 491L1109 491L1084 490M1237 490L1238 491L1237 490M1288 490L1289 491L1288 490M20 491L21 492L20 491M129 491L130 492L129 491M140 491L141 492L140 491M168 491L169 492L168 491M243 491L244 492L243 491M311 491L312 492L311 491M365 491L366 492L365 491M377 491L378 492L377 491M447.333 491.667L447.667 492.333L447.333 491.667M492 491L493 492L492 491M501 491L502 492L501 491M570 491L571 492L570 491M651 491L652 492L651 491M718 491L719 492L718 491M848 491L849 492L848 491M860 491L861 492L860 491M944 491L945 492L944 491M1083 491L1084 492L1083 491M1186 491L1187 492L1186 491M1240 491L1241 492L1240 491M1252 491L1253 492L1252 491M1366 491L1367 492L1366 491M50 492L51 493L50 492M137 492L138 493L137 492M246 492L247 493L246 492M475 492L476 493L475 492M517 492L518 493L517 492M573 492L574 493L573 492M583 492L583 498L584 498L583 492M650 492L651 493L650 492M654 492L655 493L654 492M705 492L706 493L705 492M719 492L720 493L719 492M946 492L947 493L946 492M956 492L957 493L956 492M1194 492L1195 493L1194 492M1280 492L1281 493L1280 492M1308 492L1309 493L1308 492M1374 492L1375 493L1374 492M12 493L13 494L12 493M21 493L22 494L21 493M256 493L256 497L257 497L256 493M369 493L370 494L369 493M456 493L457 494L456 493M483 493L484 494L483 493M503 493L504 494L503 493M516 493L517 494L516 493M649 493L650 494L649 493M664 493L665 494L664 493M720 493L721 494L720 493M732 493L733 494L732 493M852 493L853 494L852 493M948 493L949 494L948 493M1289 493L1290 494L1289 493M1316 493L1317 494L1316 493M40 494L41 495L40 494M130 494L131 495L130 494M161 494L162 495L161 494M370 494L371 495L370 494M474 494L475 495L474 494M514 494L515 495L514 494M648 494L649 495L648 494M697.333 494.667L697.667 495.333L697.333 494.667M721 494L722 495L721 494M798 494L799 495L798 494M853 494L854 495L853 494M1076 494L1077 495L1076 494M1245 494L1246 495L1245 494M1307 494L1308 495L1307 494M39 495L40 496L39 495M49 495L50 496L49 495M146 495L147 496L146 495M188 495L189 496L188 495M232 495L233 496L232 495M334 495L335 496L334 495M353 495L354 496L353 495M507 495L507 496L512 496L507 495M559 495L560 496L559 495M656 495L657 496L656 495M706 495L707 496L706 495M836 495L837 496L836 495M932 495L933 496L932 495M949.333 495.667L949.667 496.333L949.333 495.667M1209 495L1210 496L1209 495M1229 495L1230 496L1229 495M1281 495L1282 496L1281 495M1389 495L1390 496L1389 495M24 496L25 497L24 496M38 496L39 497L38 496M131 496L132 497L131 496M189 496L190 497L189 496M355 496L356 497L355 496M370 496L371 497L370 496M482 496L483 497L482 496M558 496L559 497L558 496M666 496L667 497L666 496M720 496L721 497L720 496M796 496L797 497L796 496M838 496L839 497L838 496M853 496L854 497L853 496M931 496L932 497L931 496M934 496L935 497L934 496M1060 496L1061 497L1060 496M1104 496L1105 497L1104 496M26 497L27 498L26 497M36 497L37 498L36 497M48 497L49 498L48 497M185 497L186 498L185 497M190 497L191 498L190 497M230 497L231 498L230 497M248 497L249 498L248 497M319 497L320 498L319 497M357 497L358 498L357 497M460 497L461 498L460 497M471 497L472 498L471 497M794 497L795 498L794 497M840 497L841 498L840 497M936 497L937 498L936 497M956.333 497.667L956.667 498.333L956.333 497.667M1100 497L1101 498L1100 497M1105 497L1106 498L1105 497M1227 497L1228 498L1227 497M1232 497L1233 498L1232 497M1245 497L1246 498L1245 497M1293 497L1294 498L1293 497M1304 497L1305 498L1304 497M30 498L30 499L33 499L30 498M163 498L164 499L163 498M183 498L184 499L183 498M238 498L239 499L238 498M247 498L248 499L247 498M297.667 498.333L298.333 498.667L297.667 498.333M300.667 498.333L301.333 498.667L300.667 498.333M320 498L321 499L320 498M331 498L332 499L331 498M351 498L352 499L351 498M359 498L360 499L359 498M369 498L370 499L369 498M377 498L378 499L377 498M441 498L441 505L442 505L441 498M450 498L451 499L450 498M462 498L463 499L462 498M469 498L470 499L469 498M565 498L566 499L565 498M604 498L605 499L604 498M607.667 498.333L608.333 498.667L607.667 498.333M658 498L659 499L658 498M698 498L699 499L698 498M709 498L710 499L709 498M834 498L835 499L834 498M842 498L843 499L842 498M852 498L853 499L852 498M860 498L861 499L860 498M938 498L939 499L938 498M1062.67 498.333L1063.33 498.667L1062.67 498.333M1065.67 498.333L1066.33 498.667L1065.67 498.333M1078 498L1079 499L1078 498M1098 498L1099 499L1098 498M1186 498L1187 499L1186 498M1195 498L1196 499L1195 498M1234 498L1235 499L1234 498M1244 498L1245 499L1244 498M1283 498L1284 499L1283 498M1295 498L1296 499L1295 498M1302 498L1303 499L1302 498M1366 498L1367 499L1366 498M1375 498L1376 499L1375 498M15 499L16 500L15 499M132 499L133 500L132 499M177 499L177 500L181 500L177 499M192 499L193 500L192 499M241 499L241 500L246 500L241 499M255 499L256 500L255 499M322 499L323 500L322 499M329 499L330 500L329 499M363 499L363 500L367 500L363 499M516 499L517 500L516 499M556 499L557 500L556 499M568 499L568 500L573 500L568 499M668 499L669 500L668 499M846 499L846 500L850 500L846 499M942 499L942 500L946 500L942 499M1052 499L1053 500L1052 499M1092 499L1092 500L1096 500L1092 499M1107 499L1108 500L1107 499M1197 499L1198 500L1197 499M1204 499L1205 500L1204 499M1238 499L1238 500L1242 500L1238 499M1252 499L1253 500L1252 499M1377 499L1378 500L1377 499M1384 499L1385 500L1384 499M16 500L17 501L16 500M144 500L145 501L144 500M287 500L288 501L287 500M350 500L351 501L350 500M479 500L480 501L479 500M499 500L500 501L499 500M515 500L516 501L515 500M594 500L595 501L594 500M727 500L728 501L727 500M955 500L956 501L955 500M1225 500L1226 501L1225 500M1312 500L1313 501L1312 500M17 501L18 502L17 501M133 501L134 502L133 501M229 501L230 502L229 501M254 501L255 502L254 501M334 501L335 502L334 501M478 501L479 502L478 501M501 501L502 502L501 501M513 501L514 502L513 501M556 501L557 502L556 501M581 501L582 502L581 501M660 501L661 502L660 501M728 501L729 502L728 501M1209 501L1210 502L1209 501M1226 501L1227 502L1226 501M1389 501L1390 502L1389 501M189 502L190 503L189 502M253 502L254 503L253 502M352 502L353 503L352 502M454 502L455 503L454 502M505 502L505 503L510 503L505 502M519 502L520 503L519 502M558 502L559 503L558 502M595 502L596 503L595 502M723 502L724 503L723 502M729 502L730 503L729 502M738 502L739 503L738 502M835 502L836 503L835 502M931 502L932 503L931 502M1104 502L1105 503L1104 502M1208 502L1209 503L1208 502M1287 502L1288 503L1287 502M1388 502L1389 503L1388 502M20 503L21 504L20 503M42 503L43 504L42 503M168 503L169 504L168 503M188 503L189 504L188 503M252 503L253 504L252 503M289 503L290 504L289 503M354 503L355 504L354 503M475 503L476 504L475 503M527 503L528 504L527 503M579 503L580 504L579 503M671 503L672 504L671 503M703 503L704 504L703 503M730 503L731 504L730 503M837 503L838 504L837 503M933 503L934 504L933 503M1054 503L1055 504L1054 503M1083 503L1084 504L1083 503M1229 503L1230 504L1229 503M1308 503L1309 504L1308 503M22 504L23 505L22 504M40 504L41 505L40 504M170 504L171 505L170 504M186 504L187 505L186 504M235 504L236 505L235 504M250 504L251 505L250 504M303 504L304 505L303 504M316 504L317 505L316 504M330 504L331 505L330 504M372 504L373 505L372 504M473 504L474 505L473 504M562 504L563 505L562 504M577 504L578 505L577 504M597 504L598 505L597 504M610 504L611 505L610 504M662 504L663 505L662 504M705 504L706 505L705 504M735 504L736 505L735 504M796.667 504.333L797.333 504.667L796.667 504.333M839 504L840 505L839 504M855 504L856 505L855 504M935 504L936 505L935 504M1068 504L1069 505L1068 504M1085 504L1086 505L1085 504M1101 504L1102 505L1101 504M1191 504L1192 505L1191 504M1205 504L1206 505L1205 504M1247 504L1248 505L1247 504M1290 504L1291 505L1290 504M1306 504L1307 505L1306 504M1371 504L1372 505L1371 504M1385 504L1386 505L1385 504M25.6667 505.333L26.3333 505.667L25.6667 505.333M36.6667 505.333L37.3333 505.667L36.6667 505.333M135 505L135 506L142 506L135 505M173 505L174 506L173 505M183 505L184 506L183 505M238.667 505.333L239.333 505.667L238.667 505.333M247 505L248 506L247 505M293 505L294 506L293 505M300 505L301 506L300 505M319 505L320 506L319 505M327 505L328 506L327 505M360 505L361 506L360 505M369 505L370 506L369 505M460 505L461 506L460 505M470 505L471 506L470 505M565.667 505.333L566.333 505.667L565.667 505.333M574.667 505.333L575.333 505.667L574.667 505.333M599.667 505.333L600.333 505.667L599.667 505.333M607 505L608 506L607 505M708 505L709 506L708 505M716 505L717 506L716 505M843 505L844 506L843 505M852 505L853 506L852 505M938.667 505.333L939.333 505.667L938.667 505.333M947.667 505.333L948.333 505.667L947.667 505.333M1058 505L1059 506L1058 505M1065 505L1066 506L1065 505M1088 505L1089 506L1088 505M1098 505L1099 506L1098 505M1194 505L1195 506L1194 505M1202 505L1203 506L1202 505M1235 505L1236 506L1235 505M1244 505L1245 506L1244 505M1293 505L1294 506L1293 505M1303 505L1304 506L1303 505M1374 505L1375 506L1374 505M1382 505L1383 506L1382 505M497 506L498 507L497 506M517 506L518 507L517 506M495 507L496 508L495 507M499 507L500 508L499 507M516 507L517 508L516 507M502 508L503 509L502 508M514 508L515 509L514 508M494 509L495 510L494 509M506 509L506 510L511 510L506 509M524 510L525 511L524 510M493 511L494 512L493 511M523 511L524 512L523 511M494 512L495 513L494 512M496 513L497 514L496 513M498 514L499 515L498 514M518 514L519 515L518 514M502.667 515.333L503.333 515.667L502.667 515.333M515 515L516 516L515 515z"/>
</svg>
